<svg width="1984" height="1116" viewBox="0 0 1984 1116" fill="none" xmlns="http://www.w3.org/2000/svg">
<path d="M1064.03 318.784C1068.04 314.768 1068.04 308.258 1064.03 304.243C1060.01 300.228 1053.5 300.228 1049.48 304.243C1045.47 308.259 1045.47 314.769 1049.48 318.784C1053.5 322.799 1060.01 322.799 1064.03 318.784Z" fill="#1A1C1D"/>
<path d="M1017 932.222C1022.53 930.917 1025.95 925.379 1024.64 919.853C1023.34 914.326 1017.8 910.904 1012.27 912.209C1006.75 913.514 1003.33 919.052 1004.63 924.579C1005.94 930.105 1011.47 933.527 1017 932.222Z" fill="#1A1C1D"/>
<path d="M1021.87 318.783C1025.88 314.767 1025.88 308.257 1021.87 304.242C1017.85 300.227 1011.34 300.227 1007.33 304.242C1003.31 308.258 1003.31 314.768 1007.33 318.783C1011.34 322.798 1017.85 322.798 1021.87 318.783Z" fill="#1A1C1D"/>
<path d="M1059.16 932.221C1064.68 930.916 1068.11 925.378 1066.8 919.851C1065.5 914.324 1059.96 910.902 1054.43 912.207C1048.9 913.512 1045.48 919.05 1046.79 924.577C1048.09 930.103 1053.63 933.526 1059.16 932.221Z" fill="#1A1C1D"/>
<path d="M893.276 556.226H965.603L969.202 541.831H893.276V488.363H950.289L961.805 473.968H893.275V420.5H1004.58L1016.09 406.105H893.275V352.637H1091.72V406.105H1023.1L1019.5 420.5H1091.72V473.968H1047.34L1035.82 488.363H1091.72V541.831H993.047L981.531 556.226H1091.72V590.616H1109.2V130.54H875.796V590.615H893.276V556.226V556.226ZM893.276 149.048H1091.72V202.516H893.276V149.048ZM893.276 216.911H1091.72V270.379H893.276V216.911ZM893.276 284.774H1091.72V338.242H893.276V284.774ZM1091.72 881.145H893.276V870.978H875.796V965.459H1109.2V870.978H1091.72V881.145ZM1091.72 949.008H893.276V895.54H1091.72V949.008V949.008Z" fill="#1A1C1D"/>
<path d="M911.784 911.992H979.647V920.218H911.784V911.992ZM594.062 165.5H661.925V173.726H594.062V165.5ZM594.062 640.54H632.053V648.766H594.062V640.54Z" fill="#1A1C1D"/>
<path d="M746.304 590.232C750.319 586.216 750.319 579.706 746.303 575.691C742.288 571.675 735.778 571.675 731.763 575.691C727.747 579.706 727.747 586.217 731.763 590.232C735.778 594.247 742.288 594.247 746.304 590.232Z" fill="#1A1C1D"/>
<path d="M594.062 572.677H661.925V580.903H594.062V572.677Z" fill="#1A1C1D"/>
<path d="M699.267 592.926C704.793 591.621 708.216 586.083 706.911 580.557C705.606 575.03 700.068 571.608 694.541 572.913C689.014 574.218 685.592 579.756 686.897 585.282C688.202 590.809 693.74 594.231 699.267 592.926Z" fill="#1A1C1D"/>
<path d="M704.15 183.055C708.166 179.04 708.166 172.53 704.15 168.514C700.135 164.499 693.625 164.499 689.609 168.515C685.594 172.53 685.594 179.04 689.609 183.055C693.625 187.071 700.135 187.071 704.15 183.055Z" fill="#1A1C1D"/>
<path d="M1021.87 590.233C1025.88 586.218 1025.88 579.707 1021.87 575.692C1017.85 571.677 1011.34 571.677 1007.33 575.692C1003.31 579.708 1003.31 586.218 1007.33 590.233C1011.34 594.249 1017.85 594.248 1021.87 590.233Z" fill="#1A1C1D"/>
<path d="M1059.15 728.634C1064.68 727.329 1068.1 721.79 1066.79 716.264C1065.49 710.737 1059.95 707.315 1054.42 708.62C1048.9 709.925 1045.47 715.463 1046.78 720.99C1048.08 726.516 1053.62 729.939 1059.15 728.634Z" fill="#1A1C1D"/>
<path d="M911.784 165.5H979.647V173.726H911.784V165.5ZM911.784 301.226H979.647V309.452H911.784V301.226ZM911.784 708.403H979.647V716.629H911.784V708.403ZM911.784 640.54H979.647V648.766H911.784V640.54Z" fill="#1A1C1D"/>
<path d="M1064.02 590.234C1068.04 586.219 1068.04 579.708 1064.02 575.693C1060.01 571.678 1053.5 571.678 1049.48 575.693C1045.47 579.709 1045.47 586.219 1049.48 590.234C1053.5 594.25 1060.01 594.249 1064.02 590.234Z" fill="#1A1C1D"/>
<path d="M1021.87 250.92C1025.88 246.905 1025.88 240.395 1021.87 236.38C1017.85 232.364 1011.34 232.364 1007.33 236.38C1003.31 240.395 1003.31 246.905 1007.33 250.921C1011.34 254.936 1017.85 254.936 1021.87 250.92Z" fill="#1A1C1D"/>
<path d="M1016.97 185.738C1022.49 184.433 1025.91 178.895 1024.61 173.369C1023.3 167.842 1017.77 164.42 1012.24 165.725C1006.71 167.03 1003.29 172.568 1004.6 178.094C1005.9 183.621 1011.44 187.043 1016.97 185.738Z" fill="#1A1C1D"/>
<path d="M1064.03 250.92C1068.04 246.905 1068.04 240.395 1064.03 236.38C1060.01 232.364 1053.5 232.364 1049.49 236.38C1045.47 240.395 1045.47 246.905 1049.49 250.921C1053.5 254.936 1060.01 254.936 1064.03 250.92Z" fill="#1A1C1D"/>
<path d="M1059.12 185.736C1064.65 184.431 1068.07 178.893 1066.77 173.367C1065.46 167.84 1059.92 164.418 1054.4 165.723C1048.87 167.028 1045.45 172.566 1046.75 178.092C1048.06 183.619 1053.6 187.041 1059.12 185.736Z" fill="#1A1C1D"/>
<path d="M911.784 233.363H979.647V241.589H911.784V233.363ZM594.062 436.952H661.925V445.178H594.062V436.952ZM638.141 844.129H594.062V852.355H651.701C646.416 851.135 641.663 848.252 638.141 844.129ZM686.604 854.411C686.604 860.09 691.207 864.693 696.885 864.693C702.563 864.693 707.167 860.09 707.167 854.411C707.167 853.933 707.123 853.466 707.06 853.005H686.711C686.648 853.467 686.604 853.933 686.604 854.411V854.411Z" fill="#1A1C1D"/>
<path d="M575.554 658.137V624.088H633.355C635.426 617.9 639.798 612.746 645.565 609.693H575.554V556.225H774.002V606.761H791.482V130.54H558.075V659.081C560.303 658.456 562.607 658.138 564.921 658.138H575.554V658.137ZM575.554 149.048H774.002V202.516H575.554V149.048ZM575.554 216.911H774.002V270.379H575.554V216.911ZM575.554 284.774H774.002V338.242H575.554V284.774ZM575.554 352.637H774.002V406.105H575.554V352.637ZM575.554 420.5H774.002V473.968H575.554V420.5V420.5ZM575.554 488.363H774.002V541.831H575.554V488.363V488.363ZM728.76 854.411C728.76 860.09 733.364 864.693 739.042 864.693C744.72 864.693 749.324 860.09 749.324 854.411C749.324 853.933 749.28 853.466 749.217 853.005H728.867C728.804 853.467 728.76 853.933 728.76 854.411V854.411Z" fill="#1A1C1D"/>
<path d="M748.546 519.013C750.719 513.766 748.227 507.752 742.981 505.579C737.735 503.406 731.72 505.897 729.547 511.143C727.374 516.39 729.865 522.404 735.112 524.577C740.358 526.75 746.373 524.259 748.546 519.013Z" fill="#1A1C1D"/>
<path d="M698.549 525.241C704.155 524.332 707.961 519.05 707.052 513.445C706.143 507.84 700.862 504.033 695.257 504.942C689.651 505.851 685.844 511.132 686.754 516.737C687.663 522.343 692.944 526.15 698.549 525.241Z" fill="#1A1C1D"/>
<path d="M594.062 911.992H661.925V920.218H594.062V911.992Z" fill="#1A1C1D"/>
<path d="M774.002 881.145H575.554V827.677H632.054V813.282H575.555V801.988H564.922C562.549 801.988 560.254 801.655 558.076 801.045V965.46H791.483V853.006H774.003V881.145H774.002ZM774.002 949.008H575.554V895.54H774.002V949.008V949.008ZM594.062 504.814H661.925V513.04H594.062V504.814Z" fill="#1A1C1D"/>
<path d="M741.439 932.235C746.965 930.93 750.388 925.392 749.083 919.866C747.778 914.339 742.239 910.917 736.713 912.222C731.186 913.527 727.764 919.065 729.069 924.592C730.374 930.118 735.912 933.54 741.439 932.235Z" fill="#1A1C1D"/>
<path d="M704.145 929.543C708.16 925.528 708.16 919.017 704.144 915.002C700.129 910.987 693.619 910.987 689.603 915.002C685.588 919.018 685.588 925.528 689.604 929.543C693.619 933.559 700.129 933.559 704.145 929.543Z" fill="#1A1C1D"/>
<path d="M594.062 369.089H661.925V377.315H594.062V369.089ZM594.062 301.226H661.925V309.452H594.062V301.226Z" fill="#1A1C1D"/>
<path d="M746.306 250.919C750.321 246.904 750.321 240.393 746.305 236.378C742.29 232.363 735.78 232.363 731.764 236.378C727.749 240.394 727.749 246.904 731.765 250.919C735.78 254.935 742.29 254.934 746.306 250.919Z" fill="#1A1C1D"/>
<path d="M699.254 321.479C704.781 320.174 708.203 314.636 706.898 309.109C705.593 303.582 700.055 300.16 694.528 301.465C689.002 302.77 685.579 308.308 686.884 313.835C688.189 319.362 693.728 322.784 699.254 321.479Z" fill="#1A1C1D"/>
<path d="M594.062 233.363H661.925V241.589H594.062V233.363Z" fill="#1A1C1D"/>
<path d="M699.251 253.616C704.778 252.311 708.2 246.773 706.895 241.247C705.59 235.72 700.052 232.298 694.525 233.603C688.999 234.908 685.576 240.446 686.881 245.973C688.186 251.499 693.725 254.922 699.251 253.616Z" fill="#1A1C1D"/>
<path d="M748.545 451.15C750.718 445.904 748.226 439.889 742.98 437.716C737.734 435.543 731.719 438.034 729.546 443.281C727.373 448.527 729.864 454.542 735.111 456.715C740.357 458.888 746.372 456.397 748.545 451.15Z" fill="#1A1C1D"/>
<path d="M430.827 519.019C433 513.773 430.509 507.758 425.262 505.585C420.016 503.412 414.001 505.903 411.828 511.149C409.655 516.396 412.147 522.41 417.393 524.583C422.639 526.757 428.654 524.265 430.827 519.019Z" fill="#1A1C1D"/>
<path d="M698.548 457.377C704.154 456.467 707.961 451.186 707.051 445.581C706.142 439.976 700.861 436.169 695.256 437.078C689.65 437.987 685.843 443.268 686.753 448.873C687.662 454.479 692.943 458.286 698.548 457.377Z" fill="#1A1C1D"/>
<path d="M1016.99 660.775C1022.52 659.47 1025.94 653.932 1024.63 648.405C1023.33 642.878 1017.79 639.456 1012.26 640.761C1006.74 642.066 1003.31 647.604 1004.62 653.131C1005.92 658.657 1011.46 662.08 1016.99 660.775Z" fill="#1A1C1D"/>
<path d="M741.414 389.338C746.941 388.033 750.363 382.495 749.058 376.968C747.753 371.442 742.215 368.02 736.688 369.325C731.162 370.63 727.74 376.168 729.045 381.694C730.35 387.221 735.888 390.643 741.414 389.338Z" fill="#1A1C1D"/>
<path d="M704.149 386.643C708.165 382.628 708.165 376.118 704.149 372.102C700.134 368.087 693.624 368.087 689.608 372.102C685.593 376.118 685.593 382.628 689.608 386.643C693.624 390.659 700.134 390.659 704.149 386.643Z" fill="#1A1C1D"/>
<path d="M741.405 185.751C746.931 184.446 750.353 178.908 749.048 173.382C747.743 167.855 742.205 164.433 736.679 165.738C731.152 167.043 727.73 172.581 729.035 178.107C730.34 183.634 735.878 187.056 741.405 185.751Z" fill="#1A1C1D"/>
<path d="M746.306 318.781C750.321 314.766 750.321 308.256 746.305 304.24C742.29 300.225 735.78 300.225 731.764 304.241C727.749 308.256 727.749 314.766 731.765 318.782C735.78 322.797 742.29 322.797 746.306 318.781Z" fill="#1A1C1D"/>
<path d="M1374.49 321.79C1380.16 321.79 1384.77 317.187 1384.77 311.508C1384.77 305.829 1380.16 301.226 1374.49 301.226C1368.81 301.226 1364.2 305.829 1364.2 311.508C1364.2 317.187 1368.81 321.79 1374.49 321.79Z" fill="#1A1C1D"/>
<path d="M1229.51 369.089H1297.37V377.315H1229.51V369.089Z" fill="#1A1C1D"/>
<path d="M1374.49 389.653C1380.16 389.653 1384.77 385.049 1384.77 379.371C1384.77 373.692 1380.16 369.089 1374.49 369.089C1368.81 369.089 1364.2 373.692 1364.2 379.371C1364.2 385.049 1368.81 389.653 1374.49 389.653Z" fill="#1A1C1D"/>
<path d="M1334.27 389.477C1339.85 388.403 1343.5 383.013 1342.43 377.436C1341.35 371.86 1335.96 368.21 1330.38 369.284C1324.81 370.358 1321.16 375.749 1322.23 381.325C1323.31 386.901 1328.7 390.551 1334.27 389.477Z" fill="#1A1C1D"/>
<path d="M1229.51 301.226H1297.37V309.452H1229.51V301.226Z" fill="#1A1C1D"/>
<path d="M1335.32 321.331C1340.76 319.686 1343.83 313.946 1342.19 308.511C1340.54 303.076 1334.8 300.004 1329.37 301.649C1323.93 303.295 1320.86 309.034 1322.5 314.469C1324.15 319.904 1329.89 322.976 1335.32 321.331Z" fill="#1A1C1D"/>
<path d="M1196.35 524.28L1207.5 524.654L1201.84 513.108C1197.02 503.117 1202 491.226 1211 488.503V488.362H1211.51C1212.62 488.073 1213.76 487.925 1214.91 487.924H1417.14C1420.79 488.049 1424.27 489.507 1426.93 492.024V130.54H1193.52V606.762H1210.59L1196.35 524.28V524.28ZM1211 149.048H1409.45V202.516H1211V149.048ZM1211 216.911H1409.45V270.379H1211V216.911ZM1211 284.774H1409.45V338.242H1211V284.774ZM1211 352.637H1409.45V406.105H1211V352.637ZM1211 420.5H1409.45V473.968H1211V420.5V420.5ZM1332.33 864.694C1338.01 864.694 1342.61 860.091 1342.61 854.412C1342.61 852.27 1341.96 850.282 1340.83 848.635C1336.64 851.491 1331.68 853.015 1326.6 853.007H1322.15C1322.09 853.468 1322.05 853.934 1322.05 854.413C1322.05 860.09 1326.65 864.694 1332.33 864.694V864.694Z" fill="#1A1C1D"/>
<path d="M1374.49 253.927C1380.16 253.927 1384.77 249.324 1384.77 243.645C1384.77 237.966 1380.16 233.363 1374.49 233.363C1368.81 233.363 1364.2 237.966 1364.2 243.645C1364.2 249.324 1368.81 253.927 1374.49 253.927Z" fill="#1A1C1D"/>
<path d="M1229.51 436.952H1297.37V445.178H1229.51V436.952Z" fill="#1A1C1D"/>
<path d="M1336.26 456.71C1341.51 454.537 1344 448.522 1341.83 443.276C1339.66 438.03 1333.64 435.538 1328.39 437.711C1323.15 439.885 1320.66 445.899 1322.83 451.146C1325 456.392 1331.02 458.883 1336.26 456.71Z" fill="#1A1C1D"/>
<path d="M1374.49 457.516C1380.16 457.516 1384.77 452.913 1384.77 447.234C1384.77 441.555 1380.16 436.952 1374.49 436.952C1368.81 436.952 1364.2 441.555 1364.2 447.234C1364.2 452.913 1368.81 457.516 1374.49 457.516Z" fill="#1A1C1D"/>
<path d="M1528.72 169.397V149.048H1537.2C1537.34 148.822 1537.51 148.642 1537.7 148.525C1539.84 147.191 1542.55 144.785 1543.63 143.804C1543.64 143.468 1543.63 143.134 1543.65 142.798C1543.77 138.638 1544.16 134.548 1544.79 130.54H1511.24V181.154C1511.39 181.02 1511.54 180.888 1511.71 180.759C1514.86 178.29 1522.66 173.244 1528.72 169.397V169.397ZM1741.83 816.001C1742.78 817.248 1743.71 818.5 1744.65 819.756V806.585L1742 816L1741.83 816.001ZM1740.38 146.517L1740.38 146.599C1740.38 148.418 1740.32 150.237 1740.22 152.053L1739.69 169.928L1739.7 169.927L1739.3 183.058C1737.44 183.184 1734.76 183.353 1731.53 183.594C1733.39 192.401 1735.58 204.099 1737.59 215.451C1738.93 223.089 1741.34 230.438 1744.65 237.333V130.54H1739.09C1739.95 135.822 1740.38 141.165 1740.38 146.517H1740.38ZM1519.57 585.819C1518.8 585.815 1515.5 585.763 1511.24 585.213V585.229C1516.03 585.841 1519.57 585.819 1519.57 585.819Z" fill="#1A1C1D"/>
<path d="M1374.49 864.693C1380.16 864.693 1384.77 860.089 1384.77 854.411C1384.77 848.732 1380.16 844.129 1374.49 844.129C1368.81 844.129 1364.2 848.732 1364.2 854.411C1364.2 860.089 1368.81 864.693 1374.49 864.693Z" fill="#1A1C1D"/>
<path d="M1229.51 233.363H1297.37V241.589H1229.51V233.363ZM1528.72 426.943V420.5H1539.21C1541.63 419.271 1544.12 418.174 1546.67 417.215C1546.85 417.146 1547.04 417.085 1547.22 417.018C1545.48 413.453 1543.9 409.811 1542.49 406.105H1528.72V352.637H1533.37C1533.62 348.273 1534.47 343.388 1535.72 338.242H1528.72V284.774H1554.3V270.379H1528.72V216.911H1541.27C1538.62 212.04 1536.84 207.222 1535.82 202.516H1528.72V195.876C1519.41 193.649 1513.77 190.744 1511.24 187.894V445.22C1515.92 438.169 1521.86 431.984 1528.72 426.943V426.943Z" fill="#1A1C1D"/>
<path d="M1335.32 253.468C1340.76 251.822 1343.83 246.082 1342.18 240.647C1340.54 235.212 1334.8 232.14 1329.36 233.786C1323.93 235.431 1320.86 241.171 1322.5 246.606C1324.15 252.041 1329.89 255.113 1335.32 253.468Z" fill="#1A1C1D"/>
<path d="M1374.49 186.064C1380.16 186.064 1384.77 181.461 1384.77 175.782C1384.77 170.103 1380.16 165.5 1374.49 165.5C1368.81 165.5 1364.2 170.103 1364.2 175.782C1364.2 181.461 1368.81 186.064 1374.49 186.064Z" fill="#1A1C1D"/>
<path d="M1334.28 185.888C1339.85 184.814 1343.5 179.423 1342.43 173.847C1341.35 168.271 1335.96 164.621 1330.39 165.695C1324.81 166.769 1321.16 172.16 1322.23 177.736C1323.31 183.312 1328.7 186.962 1334.28 185.888Z" fill="#1A1C1D"/>
<path d="M1229.51 165.5H1297.37V173.726H1229.51V165.5Z" fill="#1A1C1D"/>
<path d="M1021.87 793.82C1025.88 789.805 1025.88 783.294 1021.87 779.279C1017.85 775.264 1011.34 775.264 1007.32 779.279C1003.31 783.295 1003.31 789.805 1007.32 793.82C1011.34 797.836 1017.85 797.836 1021.87 793.82Z" fill="#1A1C1D"/>
<path d="M1058.43 525.234C1064.04 524.325 1067.85 519.044 1066.94 513.439C1066.03 507.833 1060.75 504.026 1055.14 504.936C1049.54 505.845 1045.73 511.126 1046.64 516.731C1047.55 522.336 1052.83 526.144 1058.43 525.234Z" fill="#1A1C1D"/>
<path d="M1024.89 447.234C1024.89 441.815 1020.7 437.386 1015.38 436.991L1010.46 456.641C1011.73 457.2 1013.13 457.516 1014.61 457.516C1020.29 457.516 1024.89 452.913 1024.89 447.234ZM1024.89 515.097C1024.89 511.8 1023.33 508.873 1020.92 506.992L1008.08 523.041C1009.92 524.556 1012.23 525.382 1014.61 525.379C1020.29 525.379 1024.89 520.776 1024.89 515.097V515.097Z" fill="#1A1C1D"/>
<path d="M1058.43 457.37C1064.04 456.461 1067.84 451.18 1066.93 445.575C1066.02 439.969 1060.74 436.162 1055.14 437.072C1049.53 437.981 1045.73 443.262 1046.64 448.867C1047.54 454.472 1052.83 458.279 1058.43 457.37Z" fill="#1A1C1D"/>
<path d="M1059.13 389.324C1064.66 388.019 1068.08 382.481 1066.78 376.954C1065.47 371.428 1059.93 368.005 1054.41 369.31C1048.88 370.615 1045.46 376.154 1046.76 381.68C1048.07 387.207 1053.61 390.629 1059.13 389.324Z" fill="#1A1C1D"/>
<path d="M1016.98 389.325C1022.5 388.02 1025.92 382.482 1024.62 376.955C1023.31 371.428 1017.78 368.006 1012.25 369.311C1006.72 370.616 1003.3 376.154 1004.61 381.681C1005.91 387.207 1011.45 390.63 1016.98 389.325Z" fill="#1A1C1D"/>
<path d="M899.206 609.694H1084.79V624.089H899.206V609.694ZM911.784 369.089H979.647V377.315H911.784V369.089ZM991.682 680.488V686.98C991.682 688.736 991.34 690.409 990.739 691.952H1084.79V677.557H991.682V680.488V680.488ZM979.647 580.903V572.677H968.37L961.789 580.903H979.647ZM911.784 513.04H976.4L978.208 505.81H936.332L937.128 504.814H911.784V513.04ZM911.784 572.677V580.903H959.433L961.49 572.677H911.784Z" fill="#1A1C1D"/>
<path d="M1374.49 932.556C1380.16 932.556 1384.77 927.953 1384.77 922.274C1384.77 916.595 1380.16 911.992 1374.49 911.992C1368.81 911.992 1364.2 916.595 1364.2 922.274C1364.2 927.953 1368.81 932.556 1374.49 932.556Z" fill="#1A1C1D"/>
<path d="M1518.1 816L1511.43 784.446H1511.97L1511.24 781.016V830.619L1517.84 816.001H1518.1V816Z" fill="#1A1C1D"/>
<path d="M1064.02 861.683C1068.04 857.668 1068.04 851.158 1064.02 847.142C1060.01 843.127 1053.5 843.127 1049.48 847.143C1045.46 851.158 1045.47 857.668 1049.48 861.684C1053.5 865.699 1060.01 865.699 1064.02 861.683Z" fill="#1A1C1D"/>
<path d="M1424.19 801.474C1422.51 801.818 1420.79 801.99 1419.08 801.989H1409.45V813.283H1351.95V827.678H1409.45V881.146H1211V853.007H1193.52V965.46H1426.93V800.745C1426.82 800.779 1426.72 800.817 1426.62 800.85C1425.82 801.096 1425.01 801.305 1424.19 801.474ZM1409.45 949.008H1211V895.54H1409.45V949.008V949.008Z" fill="#1A1C1D"/>
<path d="M1021.87 861.682C1025.88 857.667 1025.88 851.157 1021.87 847.141C1017.85 843.126 1011.34 843.126 1007.32 847.142C1003.31 851.157 1003.31 857.667 1007.32 861.683C1011.34 865.698 1017.85 865.698 1021.87 861.682Z" fill="#1A1C1D"/>
<path d="M1337.74 931.081C1342.57 928.096 1344.06 921.76 1341.08 916.93C1338.09 912.099 1331.76 910.603 1326.93 913.588C1322.1 916.573 1320.6 922.909 1323.58 927.74C1326.57 932.57 1332.91 934.066 1337.74 931.081Z" fill="#1A1C1D"/>
<path d="M1229.51 911.992H1297.37V920.218H1229.51V911.992ZM911.784 436.952H979.647V445.178H911.784V436.952Z" fill="#1A1C1D"/>
<path d="M1059.14 660.773C1064.67 659.468 1068.09 653.93 1066.79 648.403C1065.48 642.876 1059.95 639.454 1054.42 640.759C1048.89 642.064 1045.47 647.602 1046.78 653.129C1048.08 658.655 1053.62 662.078 1059.14 660.773Z" fill="#1A1C1D"/>
<path d="M899.206 758.687H977.956C979.892 758.687 981.731 759.092 983.401 759.815H1084.79V745.42H899.206V758.687ZM899.206 813.282H1084.79V827.677H899.206V813.282Z" fill="#1A1C1D"/>
<path d="M1064.02 793.82C1068.04 789.805 1068.04 783.295 1064.02 779.279C1060.01 775.264 1053.5 775.264 1049.48 779.279C1045.47 783.295 1045.47 789.805 1049.48 793.82C1053.5 797.836 1060.01 797.836 1064.02 793.82Z" fill="#1A1C1D"/>
<path d="M911.784 844.129H979.647V852.355H911.784V844.129Z" fill="#1A1C1D"/>
<path d="M1016.99 728.636C1022.52 727.331 1025.94 721.792 1024.64 716.266C1023.33 710.739 1017.79 707.317 1012.27 708.622C1006.74 709.927 1003.32 715.465 1004.62 720.992C1005.93 726.518 1011.47 729.941 1016.99 728.636Z" fill="#1A1C1D"/>
<path d="M380.822 457.382C386.427 456.473 390.234 451.192 389.325 445.587C388.416 439.981 383.135 436.174 377.529 437.084C371.924 437.993 368.117 443.274 369.026 448.879C369.935 454.484 375.216 458.291 380.822 457.382Z" fill="#1A1C1D"/>
<path d="M381.559 796.527C387.085 795.222 390.508 789.684 389.203 784.157C387.898 778.631 382.36 775.209 376.833 776.514C371.306 777.819 367.884 783.357 369.189 788.883C370.494 794.41 376.032 797.832 381.559 796.527Z" fill="#1A1C1D"/>
<path d="M276.34 301.226H344.203V309.452H276.34V301.226Z" fill="#1A1C1D"/>
<path d="M386.425 929.541C390.44 925.525 390.44 919.015 386.425 915C382.409 910.984 375.899 910.984 371.884 915C367.868 919.015 367.868 925.526 371.884 929.541C375.899 933.556 382.41 933.556 386.425 929.541Z" fill="#1A1C1D"/>
<path d="M422.979 457.382C428.584 456.472 432.391 451.191 431.482 445.586C430.573 439.981 425.292 436.174 419.686 437.083C414.081 437.992 410.274 443.273 411.183 448.878C412.092 454.484 417.374 458.291 422.979 457.382Z" fill="#1A1C1D"/>
<path d="M381.535 321.493C387.062 320.188 390.484 314.65 389.179 309.124C387.874 303.597 382.336 300.175 376.81 301.48C371.283 302.785 367.861 308.323 369.166 313.85C370.471 319.376 376.009 322.798 381.535 321.493Z" fill="#1A1C1D"/>
<path d="M423.715 796.525C429.242 795.22 432.664 789.682 431.359 784.155C430.054 778.629 424.516 775.207 418.989 776.512C413.463 777.817 410.04 783.355 411.345 788.881C412.65 794.408 418.188 797.83 423.715 796.525Z" fill="#1A1C1D"/>
<path d="M276.34 369.089H344.203V377.315H276.34V369.089Z" fill="#1A1C1D"/>
<path d="M423.705 592.94C429.232 591.635 432.654 586.097 431.349 580.57C430.044 575.043 424.506 571.621 418.979 572.926C413.453 574.231 410.031 579.769 411.336 585.296C412.641 590.823 418.179 594.245 423.705 592.94Z" fill="#1A1C1D"/>
<path d="M276.34 436.952H344.203V445.178H276.34V436.952Z" fill="#1A1C1D"/>
<path d="M329.672 477.589C341.809 477.572 353.651 481.338 363.549 488.363H456.28V541.831H388.387V556.226H456.28V609.694H388.387V624.089H456.28V677.557H388.387V683.092C388.387 686.326 389.274 689.347 390.795 691.952H456.28V700.706H473.76V130.54H240.353V477.589H329.672V477.589ZM257.832 149.048H456.28V202.516H257.832V149.048ZM257.832 216.911H456.28V270.379H257.832V216.911ZM257.832 284.774H456.28V338.242H257.832V284.774ZM257.832 352.637H456.28V406.105H257.832V352.637ZM257.832 420.5H456.28V473.968H257.832V420.5Z" fill="#1A1C1D"/>
<path d="M428.581 929.542C432.596 925.526 432.596 919.016 428.581 915.001C424.565 910.985 418.055 910.985 414.04 915.001C410.025 919.016 410.025 925.527 414.04 929.542C418.056 933.557 424.566 933.557 428.581 929.542Z" fill="#1A1C1D"/>
<path d="M276.34 640.54H329.672V648.766H276.34V640.54ZM276.34 776.266H344.203V784.492H276.34V776.266ZM276.34 708.403V716.629H331.868C331.109 713.931 330.545 711.182 330.181 708.403H276.34Z" fill="#1A1C1D"/>
<path d="M423.693 321.491C429.219 320.186 432.641 314.648 431.336 309.122C430.031 303.595 424.493 300.173 418.967 301.478C413.44 302.783 410.018 308.321 411.323 313.848C412.628 319.374 418.166 322.797 423.693 321.491Z" fill="#1A1C1D"/>
<path d="M388.387 759.421C373.871 759.421 360.59 754.15 350.345 745.42H257.832V691.952H329.672V677.557H257.832V624.089H329.672V609.694H257.832V556.226H329.672V553.919C329.672 549.233 327.83 544.987 324.847 541.831H257.833V536.305H240.353V965.46H473.76V759.421H388.387ZM456.28 949.008H257.832V895.54H456.28V949.008V949.008ZM456.28 881.145H257.832V827.677H456.28V881.145ZM456.28 813.282H257.832V759.814H456.28V813.282Z" fill="#1A1C1D"/>
<path d="M428.584 658.092C432.599 654.076 432.599 647.566 428.584 643.551C424.568 639.536 418.058 639.536 414.043 643.551C410.028 647.567 410.028 654.077 414.043 658.092C418.058 662.107 424.569 662.107 428.584 658.092Z" fill="#1A1C1D"/>
<path d="M276.34 572.677H329.672V580.903H276.34V572.677ZM276.34 911.992H344.203V920.218H276.34V911.992ZM276.34 844.129H344.203V852.355H276.34V844.129Z" fill="#1A1C1D"/>
<path d="M428.586 183.054C432.601 179.039 432.601 172.528 428.586 168.513C424.57 164.498 418.06 164.498 414.045 168.513C410.029 172.529 410.03 179.039 414.045 183.054C418.06 187.07 424.571 187.069 428.586 183.054Z" fill="#1A1C1D"/>
<path d="M276.34 233.363H344.203V241.589H276.34V233.363Z" fill="#1A1C1D"/>
<path d="M381.532 253.631C387.059 252.326 390.481 246.788 389.176 241.261C387.871 235.735 382.333 232.313 376.807 233.618C371.28 234.923 367.858 240.461 369.163 245.987C370.468 251.514 376.006 254.936 381.532 253.631Z" fill="#1A1C1D"/>
<path d="M0 0V1116H1488.17L1483 965.323C1482.94 962.303 1484.45 950.879 1486.56 936.522V759.421H1451.6V990.137H1168.84V853.006H1143.51V870.979H1133.88V990.137H851.119V870.979H840.491V853.006H816.159V990.137H533.397V759.421H498.437V990.137H215.675V536.304H0.212V477.59H215.676V105.863H498.438V700.706H533.398V105.863H816.16V606.762H840.492V590.615H851.12V105.863H1133.88V590.615H1143.51V606.762H1168.84V105.863H1451.6V540.349L1472.95 583.95C1473.45 572.328 1475.61 562.344 1479.18 553.254C1474.68 550.358 1462.27 546.39 1461.63 544.161C1459.74 536.966 1458.6 531.475 1458.6 531.475L1486.56 526.93V105.863H1552.08C1567.83 70.554 1603.75 46.442 1644.78 47.706C1647.33 47.784 1654.95 49.05 1654.95 49.05L1654.91 49.063C1689.32 53.509 1717.92 75.659 1731.64 105.863H1769.32V267.822C1770.89 269.04 1772.49 270.204 1774.14 271.31C1796.86 286.079 1815.98 309.748 1827.72 337.393C1833.21 350.648 1835.68 365.417 1836.43 379.997H1836.43C1867.86 408.589 1869.95 430.553 1864.27 452.707C1861.47 463.319 1857.86 471.503 1854.45 477.59H1983.79V536.304H1872.06L1921.04 682.733L1913.18 679.457C1880.01 749.016 1832.31 744.806 1770.82 712.777L1769.33 718.074V856.962C1814.94 935.882 1809.49 1003.31 1801.62 1116H1984V0H0Z" fill="white"/>
<path d="M386.429 386.641C390.444 382.626 390.444 376.115 386.428 372.1C382.413 368.085 375.903 368.085 371.888 372.1C367.872 376.116 367.872 382.626 371.888 386.641C375.903 390.657 382.413 390.656 386.429 386.641Z" fill="#1A1C1D"/>
<path d="M276.34 165.5H344.203V173.726H276.34V165.5Z" fill="#1A1C1D"/>
<path d="M386.43 183.054C390.445 179.038 390.445 172.528 386.429 168.513C382.414 164.498 375.904 164.498 371.888 168.513C367.873 172.529 367.873 179.039 371.889 183.054C375.904 187.069 382.414 187.069 386.43 183.054Z" fill="#1A1C1D"/>
<path d="M428.585 386.642C432.6 382.626 432.6 376.116 428.585 372.101C424.569 368.086 418.059 368.086 414.044 372.101C410.028 376.117 410.029 382.627 414.044 386.642C418.059 390.657 424.57 390.657 428.585 386.642Z" fill="#1A1C1D"/>
<path d="M423.689 253.629C429.215 252.324 432.638 246.786 431.333 241.26C430.028 235.733 424.489 232.311 418.963 233.616C413.436 234.921 410.014 240.459 411.319 245.986C412.624 251.512 418.162 254.934 423.689 253.629Z" fill="#1A1C1D"/>
<path d="M381.562 864.389C387.088 863.084 390.511 857.546 389.206 852.019C387.901 846.493 382.362 843.071 376.836 844.376C371.309 845.681 367.887 851.219 369.192 856.745C370.497 862.272 376.035 865.694 381.562 864.389Z" fill="#1A1C1D"/>
<path d="M423.719 864.387C429.246 863.082 432.668 857.544 431.363 852.018C430.058 846.491 424.52 843.069 418.993 844.374C413.467 845.679 410.044 851.217 411.349 856.744C412.654 862.27 418.192 865.692 423.719 864.387Z" fill="#1A1C1D"/>
<path d="M875.796 730.063H632.053V827.678C632.049 833.713 634.209 839.55 638.139 844.13C641.661 848.253 646.414 851.137 651.699 852.356C653.531 852.777 655.436 853.007 657.396 853.007H840.49V870.98H899.205V730.066H875.796V730.063ZM632.053 708.403V658.137H564.921C562.548 658.137 560.253 658.47 558.075 659.08C547.406 662.068 539.578 671.856 539.578 683.48V700.705H406.001C399.507 700.705 393.849 697.181 390.795 691.951C389.218 689.264 388.387 686.206 388.387 683.091V712.448C388.387 713.108 388.43 713.758 388.501 714.399C388.653 715.779 388.977 717.105 389.43 718.371C391.865 725.181 398.355 730.063 406.002 730.063H632.054V708.403H632.053ZM977.956 660.339H899.206V700.705H977.956C983.781 700.705 988.746 697.071 990.739 691.951C991.34 690.408 991.682 688.735 991.682 686.979V674.065C991.682 666.485 985.536 660.339 977.956 660.339Z" fill="#56B0FF"/>
<path d="M983.401 759.815C981.682 759.07 979.829 758.686 977.956 758.687H899.206V799.053H977.956C985.537 799.053 991.682 792.908 991.682 785.327V772.413C991.682 766.768 988.272 761.923 983.401 759.815ZM558.075 730.063H406.001C398.354 730.063 391.864 725.181 389.429 718.371C388.965 717.088 388.654 715.755 388.5 714.399C388.426 713.751 388.388 713.1 388.386 712.448V536.304C388.388 525.996 385.672 515.869 380.511 506.946C380.092 506.227 379.659 505.517 379.21 504.816C375.103 498.37 369.784 492.782 363.548 488.362C353.65 481.337 341.809 477.571 329.671 477.588H0.211914V536.302H312.059C317.102 536.302 321.637 538.432 324.848 541.828C327.832 544.984 329.673 549.23 329.673 553.916V700.703C329.678 706.086 330.417 711.444 331.869 716.627C333.358 721.913 335.583 726.963 338.48 731.628C341.699 736.81 345.702 741.461 350.346 745.417C360.591 754.147 373.872 759.418 388.388 759.418H539.579V776.643C539.579 788.266 547.407 798.055 558.076 801.043C560.255 801.653 562.549 801.986 564.922 801.986H632.054V730.06H558.075V730.063Z" fill="#0096E8"/>
<path d="M899.206 700.706V590.617H840.491V606.764H657.397C653.272 606.759 649.21 607.766 645.565 609.696C639.798 612.749 635.426 617.903 633.355 624.091C632.492 626.676 632.052 629.383 632.053 632.108V730.066H899.205V700.706H899.206ZM1006.44 472.748L1010.46 456.641L1015.38 436.99L1019.5 420.5L1023.1 406.105L1026.28 393.371L1016.1 406.105L1004.58 420.5L961.806 473.968L950.29 488.363L937.128 504.814L936.332 505.81H978.208L976.4 513.04L969.202 541.831L965.603 556.226L961.49 572.677L959.433 580.903L958.362 585.187L961.789 580.903L968.37 572.677L981.531 556.226L993.047 541.831L1008.08 523.041L1020.92 506.991L1035.82 488.363L1047.34 473.968L1048.31 472.748H1006.44Z" fill="#0096E8"/>
<path d="M1854.45 477.589C1854.17 478.101 1853.88 478.611 1853.58 479.117L1852.67 478.332L1852.93 479.117L1872.06 536.303H1983.79V477.589H1854.45ZM1451.6 742.41C1444.18 738.616 1436.66 734.483 1429.06 730.063H1351.95V801.988H1419.08C1420.79 801.988 1422.51 801.815 1424.19 801.473C1425.01 801.305 1425.82 801.096 1426.61 800.848C1426.72 800.816 1426.82 800.777 1426.93 800.743C1428 800.396 1429.05 799.976 1430.07 799.488C1433.01 798.071 1435.64 796.1 1437.84 793.684C1439.48 791.873 1440.86 789.834 1441.92 787.631C1443.57 784.203 1444.43 780.447 1444.42 776.643V759.418H1490.97C1489.5 758.916 1488.03 758.398 1486.56 757.867C1475.22 753.743 1463.54 748.515 1451.6 742.41ZM1351.95 679.095L1349.81 677.556C1333.11 665.529 1316.29 653.03 1299.51 640.54H1273.04C1267.36 640.35 1262.25 636.942 1259.97 631.83L1256.18 624.088L1253.38 618.365L1215.18 609.692L1211 608.743L1210.93 608.728L1210.66 607.118L1210.59 606.76H1143.51V590.613H1084.79V730.06H1351.95V679.095H1351.95Z" fill="#8A9097"/>
<path d="M1409.45 718.178C1396.5 710.029 1383.35 701.206 1370.09 691.952C1364.01 687.708 1357.97 683.422 1351.95 679.096V730.063H1429.06C1428.34 729.65 1427.63 729.235 1426.92 728.82C1421.04 725.363 1415.22 721.815 1409.45 718.178V718.178Z" fill="#71767C"/>
<path d="M1193.52 730.063H1084.79V870.977H1143.51V853.004H1326.6C1331.68 853.012 1336.64 851.488 1340.83 848.632C1347.54 844.075 1351.94 836.39 1351.95 827.675V730.061H1193.52V730.063Z" fill="#71767C"/>
<path d="M1463.34 640.541H1451.6V646.955C1462.81 651.804 1474.05 656.668 1485.1 661.458C1483.42 654.091 1481.76 646.795 1480.13 639.634C1478.58 640.236 1476.93 640.543 1475.27 640.541H1463.34V640.541Z" fill="#1A1C1D"/>
<path d="M215.675 477.589H240.353V130.54H473.76V700.706H498.437V105.863H215.675V477.589ZM473.76 965.46H240.353V536.304H215.675V990.137H498.437V759.421H473.76V965.46Z" fill="#2E3033"/>
<path d="M456.28 149.048H257.832V202.516H456.28V149.048ZM344.203 173.726H276.34V165.5H344.203V173.726ZM379.163 186.064C373.484 186.064 368.881 181.461 368.881 175.782C368.881 170.103 373.485 165.5 379.163 165.5C384.841 165.5 389.445 170.103 389.445 175.782C389.445 181.461 384.842 186.064 379.163 186.064ZM421.32 186.064C415.641 186.064 411.038 181.461 411.038 175.782C411.038 170.103 415.642 165.5 421.32 165.5C426.998 165.5 431.602 170.103 431.602 175.782C431.602 181.461 426.999 186.064 421.32 186.064ZM257.832 270.379H456.28V216.911H257.832V270.379ZM421.32 233.363C426.999 233.363 431.602 237.966 431.602 243.645C431.602 249.324 426.998 253.927 421.32 253.927C415.642 253.927 411.038 249.324 411.038 243.645C411.038 237.966 415.642 233.363 421.32 233.363ZM379.163 233.363C384.842 233.363 389.445 237.966 389.445 243.645C389.445 249.324 384.841 253.927 379.163 253.927C373.485 253.927 368.881 249.324 368.881 243.645C368.881 237.966 373.484 233.363 379.163 233.363ZM276.34 233.363H344.203V241.589H276.34V233.363V233.363ZM257.832 338.242H456.28V284.774H257.832V338.242ZM421.32 301.226C426.999 301.226 431.602 305.829 431.602 311.508C431.602 317.187 426.998 321.79 421.32 321.79C415.642 321.79 411.038 317.187 411.038 311.508C411.038 305.829 415.642 301.226 421.32 301.226ZM379.163 301.226C384.842 301.226 389.445 305.829 389.445 311.508C389.445 317.187 384.841 321.79 379.163 321.79C373.485 321.79 368.881 317.187 368.881 311.508C368.881 305.829 373.484 301.226 379.163 301.226ZM276.34 301.226H344.203V309.452H276.34V301.226V301.226ZM257.832 406.105H456.28V352.637H257.832V406.105ZM421.32 369.089C426.999 369.089 431.602 373.692 431.602 379.371C431.602 385.05 426.998 389.653 421.32 389.653C415.642 389.653 411.038 385.05 411.038 379.371C411.038 373.692 415.642 369.089 421.32 369.089ZM379.163 369.089C384.842 369.089 389.445 373.692 389.445 379.371C389.445 385.05 384.841 389.653 379.163 389.653C373.485 389.653 368.881 385.05 368.881 379.371C368.881 373.692 373.484 369.089 379.163 369.089ZM276.34 369.089H344.203V377.315H276.34V369.089V369.089ZM257.832 473.968H456.28V420.5H257.832V473.968ZM421.32 436.952C426.999 436.952 431.602 441.555 431.602 447.234C431.602 452.913 426.998 457.516 421.32 457.516C415.642 457.516 411.038 452.913 411.038 447.234C411.038 441.555 415.642 436.952 421.32 436.952ZM379.163 436.952C384.842 436.952 389.445 441.555 389.445 447.234C389.445 452.913 384.841 457.516 379.163 457.516C373.485 457.516 368.881 452.913 368.881 447.234C368.881 441.555 373.484 436.952 379.163 436.952ZM276.34 436.952H344.203V445.178H276.34V436.952V436.952ZM257.832 541.831H324.846C321.635 538.435 317.099 536.305 312.057 536.305H257.832V541.831ZM363.549 488.363C369.785 492.783 375.104 498.371 379.211 504.817C379.658 505.518 380.095 506.226 380.512 506.947C385.674 515.87 388.39 525.997 388.387 536.305V541.831H456.28V488.363H363.549V488.363ZM421.32 525.379C415.641 525.379 411.038 520.776 411.038 515.097C411.038 509.418 415.642 504.815 421.32 504.815C426.998 504.815 431.602 509.418 431.602 515.097C431.603 520.776 426.999 525.379 421.32 525.379ZM388.387 556.226V609.694H456.28V556.226H388.387V556.226ZM421.32 593.242C415.641 593.242 411.038 588.639 411.038 582.96C411.038 577.281 415.642 572.678 421.32 572.678C426.998 572.678 431.602 577.281 431.602 582.96C431.602 588.639 426.999 593.242 421.32 593.242ZM257.832 609.694H329.672V580.903H276.34V572.677H329.672V556.226H257.832V609.694ZM388.387 624.089V677.557H456.28V624.089H388.387V624.089ZM421.32 661.105C415.641 661.105 411.038 656.502 411.038 650.823C411.038 645.144 415.642 640.541 421.32 640.541C426.998 640.541 431.602 645.144 431.602 650.823C431.603 656.501 426.999 661.105 421.32 661.105ZM257.832 677.557H329.672V648.766H276.34V640.54H329.672V624.089H257.832V677.557ZM406.001 700.706H456.28V691.952H390.795C393.849 697.182 399.508 700.706 406.001 700.706ZM257.832 745.419H350.345C345.701 741.463 341.698 736.812 338.479 731.63C335.582 726.965 333.357 721.915 331.868 716.629H276.34V708.403H330.181C329.844 705.851 329.674 703.279 329.672 700.705V691.951H257.832V745.419ZM257.832 813.282H456.28V759.814H257.832V813.282ZM421.32 776.266C426.999 776.266 431.602 780.869 431.602 786.548C431.602 792.227 426.998 796.83 421.32 796.83C415.642 796.83 411.038 792.227 411.038 786.548C411.038 780.869 415.642 776.266 421.32 776.266ZM379.163 776.266C384.842 776.266 389.445 780.869 389.445 786.548C389.445 792.227 384.841 796.83 379.163 796.83C373.485 796.83 368.881 792.227 368.881 786.548C368.881 780.869 373.484 776.266 379.163 776.266ZM276.34 776.266H344.203V784.492H276.34V776.266V776.266ZM257.832 881.145H456.28V827.677H257.832V881.145ZM421.32 844.129C426.999 844.129 431.602 848.732 431.602 854.411C431.602 860.09 426.998 864.693 421.32 864.693C415.642 864.693 411.038 860.09 411.038 854.411C411.038 848.733 415.642 844.129 421.32 844.129ZM379.163 844.129C384.842 844.129 389.445 848.732 389.445 854.411C389.445 860.09 384.841 864.693 379.163 864.693C373.485 864.693 368.881 860.09 368.881 854.411C368.881 848.733 373.484 844.129 379.163 844.129ZM276.34 844.129H344.203V852.355H276.34V844.129V844.129ZM257.832 949.008H456.28V895.54H257.832V949.008V949.008ZM421.32 911.992C426.999 911.992 431.602 916.595 431.602 922.274C431.602 927.953 426.998 932.556 421.32 932.556C415.642 932.556 411.038 927.953 411.038 922.274C411.038 916.595 415.642 911.992 421.32 911.992ZM379.163 911.992C384.842 911.992 389.445 916.595 389.445 922.274C389.445 927.953 384.841 932.556 379.163 932.556C373.485 932.556 368.881 927.953 368.881 922.274C368.881 916.595 373.484 911.992 379.163 911.992ZM276.34 911.992H344.203V920.218H276.34V911.992V911.992ZM533.397 700.706H539.578V683.481C539.578 671.858 547.406 662.069 558.075 659.081V130.54H791.482V606.762H816.159V105.863H533.397V700.706V700.706ZM791.482 965.46H558.075V801.045C547.406 798.057 539.578 788.268 539.578 776.645V759.42H533.397V990.136H816.159V853.006H791.482V965.46V965.46Z" fill="#2E3033"/>
<path d="M774.002 149.048H575.554V202.516H774.002V149.048ZM661.925 173.726H594.062V165.5H661.925V173.726ZM696.885 186.064C691.206 186.064 686.603 181.461 686.603 175.782C686.603 170.103 691.207 165.5 696.885 165.5C702.563 165.5 707.167 170.103 707.167 175.782C707.167 181.461 702.564 186.064 696.885 186.064ZM739.042 186.064C733.363 186.064 728.76 181.461 728.76 175.782C728.76 170.103 733.364 165.5 739.042 165.5C744.72 165.5 749.324 170.103 749.324 175.782C749.324 181.461 744.721 186.064 739.042 186.064ZM575.554 270.379H774.002V216.911H575.554V270.379ZM739.042 233.363C744.721 233.363 749.324 237.966 749.324 243.645C749.324 249.324 744.72 253.927 739.042 253.927C733.364 253.927 728.76 249.324 728.76 243.645C728.76 237.966 733.364 233.363 739.042 233.363ZM696.885 233.363C702.564 233.363 707.167 237.966 707.167 243.645C707.167 249.324 702.563 253.927 696.885 253.927C691.207 253.927 686.603 249.324 686.603 243.645C686.603 237.966 691.206 233.363 696.885 233.363ZM594.062 233.363H661.925V241.589H594.062V233.363ZM575.554 338.242H774.002V284.774H575.554V338.242ZM739.042 301.226C744.721 301.226 749.324 305.829 749.324 311.508C749.324 317.187 744.72 321.79 739.042 321.79C733.364 321.79 728.76 317.187 728.76 311.508C728.76 305.829 733.364 301.226 739.042 301.226ZM696.885 301.226C702.564 301.226 707.167 305.829 707.167 311.508C707.167 317.187 702.563 321.79 696.885 321.79C691.207 321.79 686.603 317.187 686.603 311.508C686.603 305.829 691.206 301.226 696.885 301.226ZM594.062 301.226H661.925V309.452H594.062V301.226ZM575.554 406.105H774.002V352.637H575.554V406.105ZM739.042 369.089C744.721 369.089 749.324 373.692 749.324 379.371C749.324 385.05 744.72 389.653 739.042 389.653C733.364 389.653 728.76 385.05 728.76 379.371C728.76 373.692 733.364 369.089 739.042 369.089ZM696.885 369.089C702.564 369.089 707.167 373.692 707.167 379.371C707.167 385.05 702.563 389.653 696.885 389.653C691.207 389.653 686.603 385.05 686.603 379.371C686.603 373.692 691.206 369.089 696.885 369.089ZM594.062 369.089H661.925V377.315H594.062V369.089ZM575.554 473.968H774.002V420.5H575.554V473.968ZM739.042 436.952C744.721 436.952 749.324 441.555 749.324 447.234C749.324 452.913 744.72 457.516 739.042 457.516C733.364 457.516 728.76 452.913 728.76 447.234C728.76 441.555 733.364 436.952 739.042 436.952ZM696.885 436.952C702.564 436.952 707.167 441.555 707.167 447.234C707.167 452.913 702.563 457.516 696.885 457.516C691.207 457.516 686.603 452.913 686.603 447.234C686.603 441.555 691.206 436.952 696.885 436.952ZM594.062 436.952H661.925V445.178H594.062V436.952ZM575.554 541.831H774.002V488.363H575.554V541.831ZM739.042 504.814C744.721 504.814 749.324 509.417 749.324 515.096C749.324 520.775 744.72 525.378 739.042 525.378C733.364 525.378 728.76 520.775 728.76 515.096C728.76 509.418 733.364 504.814 739.042 504.814ZM696.885 504.814C702.564 504.814 707.167 509.417 707.167 515.096C707.167 520.775 702.563 525.378 696.885 525.378C691.207 525.378 686.603 520.775 686.603 515.096C686.603 509.418 691.206 504.814 696.885 504.814ZM594.062 504.814H661.925V513.04H594.062V504.814V504.814ZM575.554 609.694H645.565C649.21 607.764 653.272 606.757 657.397 606.762H774.002V556.226H575.554V609.694V609.694ZM739.042 572.677C744.721 572.677 749.324 577.28 749.324 582.959C749.324 588.638 744.72 593.241 739.042 593.241C733.364 593.241 728.76 588.638 728.76 582.959C728.76 577.28 733.364 572.677 739.042 572.677ZM696.885 572.677C702.564 572.677 707.167 577.28 707.167 582.959C707.167 588.638 702.563 593.241 696.885 593.241C691.207 593.241 686.603 588.638 686.603 582.959C686.603 577.28 691.206 572.677 696.885 572.677ZM594.062 572.677H661.925V580.903H594.062V572.677ZM575.554 658.137H632.053V648.766H594.062V640.54H632.053V632.105C632.053 629.302 632.515 626.609 633.355 624.088H575.554V658.137ZM575.554 801.989H632.053V813.283H575.554V801.989ZM575.554 881.145H774.002V853.006H749.217C749.28 853.467 749.324 853.933 749.324 854.412C749.324 860.091 744.72 864.694 739.042 864.694C733.364 864.694 728.76 860.091 728.76 854.412C728.76 853.934 728.804 853.467 728.867 853.006H707.06C707.123 853.467 707.167 853.933 707.167 854.412C707.167 860.091 702.563 864.694 696.885 864.694C691.207 864.694 686.603 860.091 686.603 854.412C686.603 853.934 686.647 853.467 686.71 853.006H657.397C655.437 853.006 653.532 852.776 651.7 852.355H594.062V844.129H638.14C634.208 839.55 632.049 833.712 632.054 827.677H575.554V881.145V881.145ZM575.554 949.008H774.002V895.54H575.554V949.008V949.008ZM739.042 911.992C744.721 911.992 749.324 916.595 749.324 922.274C749.324 927.953 744.72 932.556 739.042 932.556C733.364 932.556 728.76 927.953 728.76 922.274C728.76 916.595 733.364 911.992 739.042 911.992ZM696.885 911.992C702.564 911.992 707.167 916.595 707.167 922.274C707.167 927.953 702.563 932.556 696.885 932.556C691.207 932.556 686.603 927.953 686.603 922.274C686.603 916.595 691.206 911.992 696.885 911.992ZM594.062 911.992H661.925V920.218H594.062V911.992ZM1109.2 965.46H875.796V870.979H851.119V990.137H1133.88V870.979H1109.2V965.46ZM851.119 590.615H875.796V130.54H1109.2V590.615H1133.88V105.863H851.119V590.615Z" fill="#2E3033"/>
<path d="M1091.72 149.048H893.275V202.516H1091.72V149.048ZM979.646 173.726H911.783V165.5H979.646V173.726ZM1014.61 186.064C1008.93 186.064 1004.32 181.461 1004.32 175.782C1004.32 170.103 1008.93 165.5 1014.61 165.5C1020.28 165.5 1024.89 170.103 1024.89 175.782C1024.89 181.461 1020.29 186.064 1014.61 186.064V186.064ZM1056.76 186.064C1051.08 186.064 1046.48 181.461 1046.48 175.782C1046.48 170.103 1051.09 165.5 1056.76 165.5C1062.44 165.5 1067.05 170.103 1067.05 175.782C1067.05 181.461 1062.44 186.064 1056.76 186.064ZM893.275 270.379H1091.72V216.911H893.275V270.379ZM1056.76 233.363C1062.44 233.363 1067.05 237.966 1067.05 243.645C1067.05 249.324 1062.44 253.927 1056.76 253.927C1051.09 253.927 1046.48 249.324 1046.48 243.645C1046.48 237.966 1051.08 233.363 1056.76 233.363ZM1014.61 233.363C1020.29 233.363 1024.89 237.966 1024.89 243.645C1024.89 249.324 1020.28 253.927 1014.61 253.927C1008.93 253.927 1004.32 249.324 1004.32 243.645C1004.32 237.966 1008.93 233.363 1014.61 233.363ZM911.783 233.363H979.646V241.589H911.783V233.363ZM893.275 338.242H1091.72V284.774H893.275V338.242ZM1056.76 301.226C1062.44 301.226 1067.05 305.829 1067.05 311.508C1067.05 317.187 1062.44 321.79 1056.76 321.79C1051.09 321.79 1046.48 317.187 1046.48 311.508C1046.48 305.829 1051.08 301.226 1056.76 301.226ZM1014.61 301.226C1020.29 301.226 1024.89 305.829 1024.89 311.508C1024.89 317.187 1020.28 321.79 1014.61 321.79C1008.93 321.79 1004.32 317.187 1004.32 311.508C1004.32 305.829 1008.93 301.226 1014.61 301.226ZM911.783 301.226H979.646V309.452H911.783V301.226ZM893.275 406.105H1016.1L1026.28 393.371L1023.1 406.105H1091.72V352.637H893.275V406.105ZM1056.76 369.089C1062.44 369.089 1067.05 373.692 1067.05 379.371C1067.05 385.05 1062.44 389.653 1056.76 389.653C1051.09 389.653 1046.48 385.05 1046.48 379.371C1046.48 373.692 1051.08 369.089 1056.76 369.089ZM1014.61 369.089C1020.29 369.089 1024.89 373.692 1024.89 379.371C1024.89 385.05 1020.28 389.653 1014.61 389.653C1008.93 389.653 1004.32 385.05 1004.32 379.371C1004.32 373.692 1008.93 369.089 1014.61 369.089ZM911.783 369.089H979.646V377.315H911.783V369.089ZM893.275 473.968H961.805L1004.58 420.5H893.275V473.968ZM911.783 436.952H979.646V445.178H911.783V436.952V436.952ZM1091.72 420.5H1019.5L1015.38 436.991C1020.69 437.387 1024.89 441.816 1024.89 447.234C1024.89 452.913 1020.28 457.516 1014.61 457.516C1013.13 457.516 1011.73 457.2 1010.46 456.641L1006.44 472.748H1048.31L1047.34 473.968H1091.72V420.5V420.5ZM1056.76 457.516C1051.08 457.516 1046.48 452.913 1046.48 447.234C1046.48 441.555 1051.09 436.952 1056.76 436.952C1062.44 436.952 1067.05 441.555 1067.05 447.234C1067.05 452.913 1062.44 457.516 1056.76 457.516ZM1014.61 525.379C1012.23 525.382 1009.92 524.556 1008.08 523.041L993.047 541.831H1091.72V488.363H1035.82L1020.92 506.992C1023.33 508.874 1024.89 511.8 1024.89 515.097C1024.89 520.776 1020.29 525.379 1014.61 525.379V525.379ZM1056.76 504.814C1062.44 504.814 1067.05 509.417 1067.05 515.096C1067.05 520.775 1062.44 525.378 1056.76 525.378C1051.09 525.378 1046.48 520.775 1046.48 515.096C1046.48 509.418 1051.08 504.814 1056.76 504.814ZM893.275 541.831H969.201L976.399 513.04H911.783V504.814H937.127L950.289 488.363H893.275V541.831ZM893.275 590.615H899.205V609.693H1084.79V590.615H1091.72V556.225H981.53L968.369 572.677H979.646V580.903H961.788L958.361 585.187L959.432 580.903H911.783V572.677H961.489L965.602 556.225H893.275V590.615V590.615ZM1056.76 572.677C1062.44 572.677 1067.05 577.28 1067.05 582.959C1067.05 588.638 1062.44 593.241 1056.76 593.241C1051.09 593.241 1046.48 588.638 1046.48 582.959C1046.48 577.28 1051.08 572.677 1056.76 572.677ZM1014.61 572.677C1020.29 572.677 1024.89 577.28 1024.89 582.959C1024.89 588.638 1020.28 593.241 1014.61 593.241C1008.93 593.241 1004.32 588.638 1004.32 582.959C1004.32 577.28 1008.93 572.677 1014.61 572.677ZM1084.79 677.557V624.089H899.205V660.339H977.955C985.536 660.339 991.681 666.484 991.681 674.065V677.556H1084.79V677.557ZM979.646 648.766H911.783V640.54H979.646V648.766V648.766ZM1056.76 640.54C1062.44 640.54 1067.05 645.143 1067.05 650.822C1067.05 656.501 1062.44 661.104 1056.76 661.104C1051.09 661.104 1046.48 656.501 1046.48 650.822C1046.48 645.144 1051.08 640.54 1056.76 640.54ZM1014.61 640.54C1020.29 640.54 1024.89 645.143 1024.89 650.822C1024.89 656.501 1020.28 661.104 1014.61 661.104C1008.93 661.104 1004.32 656.501 1004.32 650.822C1004.32 645.144 1008.93 640.54 1014.61 640.54ZM1084.79 730.063V691.952H990.738C988.745 697.072 983.78 700.706 977.955 700.706H899.205V745.419H1084.79V730.063ZM979.646 716.629H911.783V708.403H979.646V716.629V716.629ZM1014.61 728.968C1008.93 728.968 1004.32 724.365 1004.32 718.686C1004.32 713.007 1008.93 708.404 1014.61 708.404C1020.28 708.404 1024.89 713.007 1024.89 718.686C1024.89 724.365 1020.29 728.968 1014.61 728.968ZM1056.76 728.968C1051.08 728.968 1046.48 724.365 1046.48 718.686C1046.48 713.007 1051.09 708.404 1056.76 708.404C1062.44 708.404 1067.05 713.007 1067.05 718.686C1067.05 724.365 1062.44 728.968 1056.76 728.968ZM991.681 778.905V785.327C991.681 792.908 985.536 799.053 977.955 799.053H899.205V813.282H1084.79V759.815H983.4C988.271 761.923 991.681 766.768 991.681 772.413V778.905V778.905ZM1056.76 776.266C1062.44 776.266 1067.05 780.869 1067.05 786.548C1067.05 792.227 1062.44 796.83 1056.76 796.83C1051.09 796.83 1046.48 792.227 1046.48 786.548C1046.48 780.869 1051.08 776.266 1056.76 776.266ZM1014.61 776.266C1020.29 776.266 1024.89 780.869 1024.89 786.548C1024.89 792.227 1020.28 796.83 1014.61 796.83C1008.93 796.83 1004.32 792.227 1004.32 786.548C1004.32 780.869 1008.93 776.266 1014.61 776.266ZM893.275 881.145H1091.72V870.978H1084.79V827.677H899.205V870.978H893.275V881.145V881.145ZM1056.76 844.129C1062.44 844.129 1067.05 848.732 1067.05 854.411C1067.05 860.09 1062.44 864.693 1056.76 864.693C1051.09 864.693 1046.48 860.09 1046.48 854.411C1046.48 848.733 1051.08 844.129 1056.76 844.129ZM1014.61 844.129C1020.29 844.129 1024.89 848.732 1024.89 854.411C1024.89 860.09 1020.28 864.693 1014.61 864.693C1008.93 864.693 1004.32 860.09 1004.32 854.411C1004.32 848.733 1008.93 844.129 1014.61 844.129ZM911.783 844.129H979.646V852.355H911.783V844.129ZM893.275 949.008H1091.72V895.54H893.275V949.008V949.008ZM1056.76 911.992C1062.44 911.992 1067.05 916.595 1067.05 922.274C1067.05 927.953 1062.44 932.556 1056.76 932.556C1051.09 932.556 1046.48 927.953 1046.48 922.274C1046.48 916.595 1051.08 911.992 1056.76 911.992ZM1014.61 911.992C1020.29 911.992 1024.89 916.595 1024.89 922.274C1024.89 927.953 1020.28 932.556 1014.61 932.556C1008.93 932.556 1004.32 927.953 1004.32 922.274C1004.32 916.595 1008.93 911.992 1014.61 911.992ZM911.783 911.992H979.646V920.218H911.783V911.992ZM1444.42 776.645C1444.43 781.695 1442.92 786.632 1440.09 790.815C1437.58 794.541 1434.12 797.535 1430.07 799.49C1429.05 799.978 1428 800.398 1426.92 800.745V965.46H1193.52V853.006H1168.84V990.137H1451.6V759.421H1444.42V776.645V776.645ZM1168.84 606.762H1193.52V130.54H1426.92V492.025C1428.31 493.331 1429.42 494.898 1430.2 496.635L1451.6 540.349V105.863H1168.84V606.762V606.762Z" fill="#2E3033"/>
<path d="M1409.45 149.048H1211V202.516H1409.45V149.048ZM1297.37 173.726H1229.51V165.5H1297.37V173.726ZM1332.33 186.064C1326.65 186.064 1322.05 181.461 1322.05 175.782C1322.05 170.103 1326.65 165.5 1332.33 165.5C1338.01 165.5 1342.61 170.103 1342.61 175.782C1342.61 181.461 1338.01 186.064 1332.33 186.064ZM1374.49 186.064C1368.81 186.064 1364.2 181.461 1364.2 175.782C1364.2 170.103 1368.81 165.5 1374.49 165.5C1380.16 165.5 1384.77 170.103 1384.77 175.782C1384.77 181.461 1380.16 186.064 1374.49 186.064ZM1211 270.379H1409.45V216.911H1211V270.379ZM1374.49 233.363C1380.16 233.363 1384.77 237.966 1384.77 243.645C1384.77 249.324 1380.16 253.927 1374.49 253.927C1368.81 253.927 1364.2 249.324 1364.2 243.645C1364.2 237.966 1368.81 233.363 1374.49 233.363ZM1332.33 233.363C1338.01 233.363 1342.61 237.966 1342.61 243.645C1342.61 249.324 1338.01 253.927 1332.33 253.927C1326.65 253.927 1322.05 249.324 1322.05 243.645C1322.05 237.966 1326.65 233.363 1332.33 233.363ZM1229.51 233.363H1297.37V241.589H1229.51V233.363ZM1211 338.242H1409.45V284.774H1211V338.242ZM1374.49 301.226C1380.16 301.226 1384.77 305.829 1384.77 311.508C1384.77 317.187 1380.16 321.79 1374.49 321.79C1368.81 321.79 1364.2 317.187 1364.2 311.508C1364.2 305.829 1368.81 301.226 1374.49 301.226ZM1332.33 301.226C1338.01 301.226 1342.61 305.829 1342.61 311.508C1342.61 317.187 1338.01 321.79 1332.33 321.79C1326.65 321.79 1322.05 317.187 1322.05 311.508C1322.05 305.829 1326.65 301.226 1332.33 301.226ZM1229.51 301.226H1297.37V309.452H1229.51V301.226ZM1211 406.105H1409.45V352.637H1211V406.105ZM1374.49 369.089C1380.16 369.089 1384.77 373.692 1384.77 379.371C1384.77 385.05 1380.16 389.653 1374.49 389.653C1368.81 389.653 1364.2 385.05 1364.2 379.371C1364.2 373.692 1368.81 369.089 1374.49 369.089ZM1332.33 369.089C1338.01 369.089 1342.61 373.692 1342.61 379.371C1342.61 385.05 1338.01 389.653 1332.33 389.653C1326.65 389.653 1322.05 385.05 1322.05 379.371C1322.05 373.692 1326.65 369.089 1332.33 369.089ZM1229.51 369.089H1297.37V377.315H1229.51V369.089ZM1211 473.968H1409.45V420.5H1211V473.968ZM1374.49 436.952C1380.16 436.952 1384.77 441.555 1384.77 447.234C1384.77 452.913 1380.16 457.516 1374.49 457.516C1368.81 457.516 1364.2 452.913 1364.2 447.234C1364.2 441.555 1368.81 436.952 1374.49 436.952ZM1332.33 436.952C1338.01 436.952 1342.61 441.555 1342.61 447.234C1342.61 452.913 1338.01 457.516 1332.33 457.516C1326.65 457.516 1322.05 452.913 1322.05 447.234C1322.05 441.555 1326.65 436.952 1332.33 436.952ZM1229.51 436.952H1297.37V445.178H1229.51V436.952ZM1211 488.504C1211.17 488.453 1211.34 488.408 1211.51 488.363H1211V488.504ZM1351.95 801.989H1409.45V813.283H1351.95V801.989ZM1211 881.145H1409.45V827.677H1351.95C1351.94 836.392 1347.54 844.077 1340.83 848.634C1341.99 850.337 1342.61 852.35 1342.61 854.411C1342.61 860.09 1338.01 864.693 1332.33 864.693C1326.65 864.693 1322.05 860.09 1322.05 854.411C1322.05 853.933 1322.09 853.466 1322.15 853.005H1211V881.145V881.145ZM1374.49 844.129C1380.16 844.129 1384.77 848.732 1384.77 854.411C1384.77 860.09 1380.16 864.693 1374.49 864.693C1368.81 864.693 1364.2 860.09 1364.2 854.411C1364.2 848.733 1368.81 844.129 1374.49 844.129ZM1211 949.008H1409.45V895.54H1211V949.008V949.008ZM1374.49 911.992C1380.16 911.992 1384.77 916.595 1384.77 922.274C1384.77 927.953 1380.16 932.556 1374.49 932.556C1368.81 932.556 1364.2 927.953 1364.2 922.274C1364.2 916.595 1368.81 911.992 1374.49 911.992ZM1332.33 911.992C1338.01 911.992 1342.61 916.595 1342.61 922.274C1342.61 927.953 1338.01 932.556 1332.33 932.556C1326.65 932.556 1322.05 927.953 1322.05 922.274C1322.05 916.595 1326.65 911.992 1332.33 911.992ZM1229.51 911.992H1297.37V920.218H1229.51V911.992ZM1552.01 106.01C1552.04 105.96 1552.06 105.912 1552.08 105.863H1486.56V526.93L1495.43 525.489L1495.71 525.037L1495.71 525.035L1500.64 472.587C1502.14 462.599 1505.85 453.338 1511.24 445.219V187.894C1509.07 185.45 1509.19 183.048 1511.24 181.153V130.54H1544.79C1546.11 122.082 1548.54 113.834 1552.01 106.01V106.01ZM1490.97 759.421H1486.56V936.522C1489.13 919.061 1492.6 897.264 1495.21 880.951L1495.22 880.885C1497.06 869.409 1498.47 860.657 1498.85 858.071L1507.1 839.79L1508.41 836.9L1511.24 830.618V781.015C1510.05 775.453 1508.86 769.891 1507.67 764.329C1502.2 762.999 1496.63 761.349 1490.97 759.421V759.421ZM1731.64 105.863C1732.73 108.263 1733.73 110.707 1734.62 113.188C1736.64 118.822 1738.14 124.631 1739.09 130.54H1744.65V237.334C1750.39 249.279 1758.84 259.718 1769.32 267.822V105.863H1731.64ZM1487.19 572.943C1491.03 581.215 1502.98 584.171 1511.24 585.229V585.213C1502.93 584.14 1491.01 581.171 1487.19 572.943ZM1751 784L1744.65 806.585V819.756C1754.18 832.561 1762.35 844.896 1769.32 856.961V718.074L1750.67 784.002L1751 784Z" fill="#2E3033"/>
<path d="M1528.72 149.048V169.397C1533.21 166.55 1536.75 164.359 1536.75 164.359V164.358C1536.74 164.342 1535.2 152.105 1537.2 149.048H1528.72V149.048ZM1528.72 195.876V202.516H1535.82C1535.43 200.757 1535.15 198.979 1534.96 197.188C1533.89 196.984 1532.82 196.773 1531.75 196.553C1530.74 196.344 1529.73 196.118 1528.72 195.876V195.876ZM1665.01 234.866C1666.84 234.995 1668.62 235.104 1670.33 235.194L1670.35 235.195C1671.98 235.282 1673.62 235.355 1675.25 235.414C1676.49 235.459 1677.68 235.495 1678.82 235.522L1678.82 235.505C1674.22 235.377 1669.61 235.164 1665.01 234.866V234.866ZM1554.3 241.589V234.008C1554.09 233.793 1553.89 233.578 1553.68 233.363C1548.31 227.866 1544.24 222.356 1541.27 216.911H1528.72V270.379H1554.3V241.589V241.589ZM1528.72 284.774V338.242H1535.72C1538.4 327.27 1542.89 315.131 1547.23 304.41C1547.66 303.332 1548.1 302.272 1548.53 301.226C1550.31 296.899 1552.03 292.857 1553.54 289.298C1553.92 288.73 1554.11 288.162 1554.3 287.594V284.775H1528.72V284.774ZM1528.72 352.637V406.105H1542.49C1537.41 392.79 1533.28 375.691 1533.28 355.191C1533.28 354.364 1533.32 353.507 1533.37 352.637H1528.72V352.637ZM1528.72 426.943C1532.03 424.51 1535.54 422.355 1539.21 420.5H1528.72V426.943ZM1451.6 646.955V640.541H1436.77C1441.69 642.67 1446.65 644.811 1451.6 646.955Z" fill="#2E3033"/>
<path d="M1249.14 609.694L1247.88 607.12L1247.7 606.762L1238.16 587.271L1213.43 606.762L1212.97 607.12L1211 608.679L1210.93 608.73L1211 608.745L1215.18 609.694L1253.38 618.366L1249.14 609.694Z" fill="#B2B9C0"/>
<path d="M1547.22 417.018C1547.04 417.085 1546.85 417.146 1546.67 417.215C1544.12 418.174 1541.63 419.27 1539.21 420.5C1535.54 422.355 1532.03 424.51 1528.72 426.943C1521.86 431.985 1515.92 438.17 1511.24 445.221C1505.86 453.34 1502.14 462.601 1500.64 472.589L1495.72 525.037L1495.99 524.614C1501.19 516.634 1506.28 508.576 1511.24 500.445C1517.27 490.579 1523.1 480.593 1528.72 470.493C1539.65 450.845 1547.03 435.617 1551.42 425.997L1551.41 425.982C1552.24 424.162 1553.06 422.334 1553.87 420.501C1554.75 418.495 1555.6 416.475 1556.43 414.444L1556.5 414.269C1553.35 414.982 1550.25 415.901 1547.22 417.018V417.018ZM1744.65 698.082C1735.05 692.374 1725.16 686.21 1714.97 679.718L1711.76 691.952L1697.75 745.42L1693.98 759.815L1689.58 776.62L1687.52 784.446L1702.25 784.343L1727.17 784.168L1744.65 784.045L1750.67 784.003L1769.32 718.075L1770.82 712.778C1770.33 712.52 1769.82 712.242 1769.32 711.98C1761.33 707.771 1753.1 703.111 1744.65 698.082V698.082ZM1769.32 620.413L1779.99 624.782C1777.35 619.139 1773.3 609.562 1769.32 596.568C1764.58 581.061 1759.96 560.68 1757.97 536.304C1757.49 530.547 1757.19 524.775 1757.09 518.999L1752.56 536.304L1744.65 566.482L1734.28 606.057L1744.65 610.305L1769.32 620.413V620.413Z" fill="#007BC0"/>
<path d="M1711.6 677.557C1693.42 665.93 1674.33 653.364 1654.33 640.65C1645.53 635.048 1636.68 629.528 1627.77 624.09C1619.76 619.194 1611.69 614.395 1603.55 609.695C1600.91 608.169 1598.27 606.655 1595.61 605.153C1589.56 601.729 1583.46 598.377 1577.32 595.098C1574.37 593.543 1545.62 589.306 1528.72 587.002C1525.74 586.592 1522.75 586.198 1519.76 585.82H1519.57C1519.57 585.82 1516.03 585.843 1511.24 585.23C1502.98 584.172 1491.03 581.216 1487.19 572.944C1486.98 572.431 1486.78 571.909 1486.56 571.393C1484.35 566.006 1482.31 560.469 1480.76 554.766C1480.61 554.314 1480.03 553.803 1479.18 553.255C1475.61 562.345 1473.45 572.329 1472.95 583.951L1486.56 611.749L1488.33 615.358C1491.57 622.049 1490.39 629.586 1486.56 634.657C1484.88 636.885 1482.69 638.642 1480.13 639.634C1482.28 649.062 1484.42 658.492 1486.56 667.922L1490.79 686.554C1491.81 691.139 1492.85 695.877 1493.91 700.707C1496.01 710.274 1498.17 720.208 1500.3 730.064C1502.47 740.089 1504.61 750.03 1506.62 759.421L1507.68 764.33C1508.87 769.892 1510.05 775.454 1511.24 781.016L1511.97 784.446H1687.52L1689.58 776.62L1693.98 759.815L1697.75 745.42L1711.77 691.952L1714.97 679.718L1714.82 679.622C1713.75 678.942 1712.67 678.244 1711.6 677.557V677.557ZM1769.33 410.729C1761.8 408.239 1752.61 405.188 1744.65 402.547C1736.39 399.807 1729.48 397.51 1727.17 396.744L1726.34 396.47L1715.74 370.34H1609.7L1607.12 377.315L1600.05 396.47L1576.51 406.105L1563.5 411.429L1556.5 414.269L1556.43 414.444L1556.3 414.766C1555.52 416.689 1554.71 418.601 1553.87 420.501C1553.07 422.34 1552.25 424.172 1551.42 425.997C1547.03 435.617 1539.65 450.846 1528.72 470.493C1523.09 480.593 1517.27 490.579 1511.24 500.445C1506.28 508.577 1501.19 516.634 1495.99 524.614L1495.71 525.037L1495.71 525.039L1495.43 525.491L1511.24 522.901L1528.72 520.038L1550.91 516.404L1550.85 516.541L1586.22 541.831L1595.61 548.542L1597.96 550.222L1612.62 556.227L1654.33 573.31L1682.08 584.678L1698.22 591.29L1727.17 603.147L1734.12 605.997L1734.27 606.058L1744.65 566.483L1752.56 536.305L1757.09 519L1757.08 518.439C1756.96 510.801 1757.14 502.306 1757.84 493.409C1758.25 488.24 1758.83 482.937 1759.63 477.59C1761.5 465.054 1764.55 452.28 1769.32 440.434C1772.83 431.729 1777.27 423.531 1782.84 416.295C1782.93 416.187 1783.01 416.079 1783.09 415.972L1783.11 415.946C1783.25 415.769 1783.38 415.588 1783.52 415.412C1778.79 413.86 1774.05 412.299 1769.33 410.729V410.729Z" fill="#0096E8"/>
<path d="M1553.87 420.5C1554.71 418.6 1555.52 416.688 1556.3 414.765C1555.95 415.616 1555.15 417.56 1553.87 420.5C1553.06 422.334 1552.24 424.161 1551.41 425.981L1551.42 425.996C1552.25 424.171 1553.07 422.339 1553.87 420.5V420.5Z" fill="#007BC0"/>
<path d="M1750.67 784.002L1744.65 784.045L1727.17 784.167L1702.25 784.342L1687.52 784.445L1687.48 784.446H1511.43L1518.1 816H1741.83V816.001L1742 816L1744.65 806.585L1751 784L1750.67 784.002Z" fill="#001D33"/>
<path d="M1921.03 682.733L1872.06 536.304L1852.93 479.118L1852.67 478.333L1852.42 477.589L1851.88 475.996C1841.47 434.34 1817.8 420.896 1783.53 415.404L1783.52 415.411C1783.38 415.587 1783.25 415.768 1783.11 415.945L1783.09 415.971L1782.84 416.294C1777.27 423.531 1772.83 431.729 1769.32 440.433C1764.55 452.279 1761.5 465.052 1759.63 477.589C1758.85 482.84 1758.26 488.116 1757.84 493.408C1757.14 502.305 1756.96 510.8 1757.08 518.438C1757.09 518.623 1757.09 518.814 1757.09 518.999C1757.19 524.775 1757.49 530.547 1757.97 536.304C1759.95 560.68 1764.58 581.061 1769.32 596.568C1773.3 609.562 1777.35 619.139 1779.99 624.782L1794.09 630.558L1897.21 672.797L1913.23 679.358L1913.18 679.458L1921.03 682.733V682.733Z" fill="#56B0FF"/>
<path d="M1783.53 415.404L1783.53 415.405V415.404H1783.53Z" fill="#56B0FF"/>
<path d="M1619.44 325.672C1619.28 325.664 1619.13 325.662 1618.98 325.653L1618.93 325.65L1618.89 326.038C1618.48 329.898 1618.02 334.06 1617.57 338.243C1617.2 341.556 1616.85 344.871 1616.52 348.187C1616.54 348.175 1616.6 348.152 1616.67 348.126L1616.68 348.087L1616.71 347.809C1616.87 347.707 1617.03 347.6 1617.2 347.498C1621.82 344.628 1626.3 341.54 1630.63 338.244C1636.53 333.759 1642.11 328.907 1647.32 323.628C1647.47 323.481 1647.62 323.341 1647.76 323.194C1638.44 325.428 1628.94 326.19 1619.44 325.672ZM1511.24 522.9L1495.43 525.49L1486.56 526.931L1458.6 531.476C1458.6 531.476 1459.74 536.967 1461.63 544.162C1462.27 546.391 1474.68 550.359 1479.18 553.255C1480.03 553.803 1480.61 554.314 1480.76 554.766C1482.31 560.469 1484.35 566.005 1486.56 571.393C1486.77 571.909 1486.98 572.431 1487.19 572.944C1491.01 581.172 1502.93 584.141 1511.24 585.213C1515.5 585.763 1518.8 585.815 1519.57 585.819H1519.76L1528.72 565.855L1533.04 556.226L1539.5 541.831L1550.85 516.541L1550.91 516.404L1528.72 520.038L1511.24 522.9V522.9Z" fill="#C1C7CC"/>
<path d="M1488.33 615.357L1486.56 611.748L1472.95 583.95L1451.6 540.349L1430.2 496.635C1429.42 494.898 1428.31 493.331 1426.93 492.025C1424.27 489.508 1420.79 488.05 1417.13 487.925H1405.2C1406.27 487.961 1407.32 488.11 1408.33 488.363C1408.71 488.457 1409.08 488.569 1409.45 488.692C1413.33 489.99 1416.58 492.842 1418.27 496.636L1426.92 514.313L1451.6 564.714L1474.56 611.606L1476.4 615.358C1478.38 619.451 1478.81 624.121 1477.62 628.508C1475.8 635.241 1470.37 640.542 1463.33 640.542H1475.26C1476.99 640.542 1478.63 640.218 1480.13 639.635C1482.69 638.644 1484.88 636.886 1486.56 634.658C1490.39 629.585 1491.56 622.048 1488.33 615.357V615.357Z" fill="#2E3033"/>
<path d="M1476.4 615.357L1474.56 611.605L1451.6 564.713L1426.93 514.312L1418.27 496.635C1416.58 492.841 1413.33 489.989 1409.45 488.691C1409.08 488.567 1408.71 488.457 1408.33 488.362C1407.31 488.106 1406.26 487.959 1405.21 487.924H1214.91C1213.73 487.924 1212.6 488.081 1211.52 488.362C1211.34 488.407 1211.17 488.452 1211 488.503C1202 491.226 1197.02 503.117 1201.85 513.108L1207.5 524.654L1211 524.772L1275.31 526.931C1275.95 531.454 1275.72 536.59 1274.71 541.83C1273.73 546.81 1272.13 551.647 1269.94 556.225C1268.22 559.836 1266.14 563.263 1263.71 566.301C1261.79 568.694 1259.67 570.85 1257.36 572.676C1255.98 573.769 1254.51 574.744 1252.97 575.592L1246.24 580.901L1238.16 587.268L1247.7 606.759L1247.88 607.117L1249.14 609.69L1253.39 618.363L1256.19 624.086L1259.98 631.828C1262.25 636.94 1267.36 640.347 1273.04 640.538H1463.34C1470.37 640.538 1475.81 635.237 1477.62 628.504C1478.81 624.117 1478.38 619.45 1476.4 615.357V615.357Z" fill="#595E62"/>
<path d="M1560.6 216.911C1561.5 225.18 1562.72 233.412 1564.25 241.589C1565.53 248.454 1567.05 255.272 1568.8 262.032C1569.56 264.819 1570.33 267.601 1571.12 270.379C1572.48 275.195 1573.91 279.993 1575.39 284.774C1577.1 290.289 1578.91 295.774 1580.81 301.226C1581.77 303.979 1582.76 306.722 1583.79 309.452C1586.49 316.622 1588.12 320.162 1588.12 320.162C1598.14 323.187 1608.35 325.078 1618.93 325.65L1618.98 325.653C1619.13 325.662 1619.28 325.664 1619.44 325.672C1628.94 326.19 1638.44 325.428 1647.76 323.191C1647.62 323.338 1647.47 323.479 1647.32 323.625C1642.11 328.904 1636.53 333.757 1630.63 338.241C1626.3 341.536 1621.82 344.624 1617.2 347.495C1617.03 347.597 1616.87 347.704 1616.71 347.806L1616.68 348.084L1616.67 348.123C1615.87 355.113 1615.06 362.101 1614.23 369.088L1614.08 370.339H1713.61L1710.41 352.637L1707.8 338.242L1698.12 284.774L1695.51 270.379L1695.48 270.174C1703.73 259.396 1722.3 232.9 1716.98 216.911C1716.32 214.923 1715.31 213.088 1713.84 211.475C1705.72 202.649 1697.01 208.644 1690.28 216.911C1684.32 224.234 1679.91 233.339 1678.82 235.505L1678.82 235.522C1675.99 235.453 1673.17 235.344 1670.35 235.195L1670.33 235.194C1668.62 235.104 1666.84 234.995 1665.01 234.866C1659.92 234.506 1654.83 234.009 1649.77 233.377C1630.99 231.017 1609.52 226.268 1592.21 216.911C1584.93 212.98 1578.39 208.239 1573.09 202.516C1573.01 202.425 1572.93 202.33 1572.84 202.238L1572.8 202.234L1572.24 202.187C1568.38 201.865 1564.53 201.485 1560.68 201.048L1559.65 200.927L1559.25 200.88C1559.28 201.426 1559.31 201.971 1559.35 202.517C1559.67 207.321 1560.08 212.122 1560.6 216.911V216.911ZM1897.21 672.797L1794.09 630.558L1779.99 624.782L1769.33 620.413L1744.65 610.305L1734.28 606.057L1734.13 605.996L1727.17 603.146L1698.22 591.289L1682.08 584.677L1654.33 573.309L1612.62 556.226L1597.96 550.221L1595.61 548.541L1586.23 541.83L1550.85 516.54L1539.5 541.83L1533.04 556.225L1528.72 565.854L1519.76 585.818C1521.93 586.089 1525.05 586.5 1528.72 587C1545.62 589.304 1574.37 593.541 1577.32 595.096C1583.46 598.375 1589.56 601.726 1595.61 605.151C1598.27 606.653 1600.91 608.167 1603.55 609.693C1611.76 614.43 1619.83 619.243 1627.77 624.088C1636.68 629.526 1645.53 635.046 1654.33 640.648C1674.33 653.363 1693.42 665.928 1711.6 677.555C1712.67 678.242 1713.75 678.94 1714.82 679.621L1714.97 679.717C1725.16 686.209 1735.05 692.373 1744.65 698.081C1753.11 703.11 1761.33 707.77 1769.33 711.978C1769.82 712.24 1770.33 712.518 1770.82 712.776C1832.31 744.805 1880.01 749.015 1913.18 679.456L1913.23 679.356L1897.21 672.797V672.797ZM1211 524.772L1207.5 524.654L1196.35 524.28L1210.59 606.762L1210.66 607.12L1210.93 608.73L1211 608.679L1212.98 607.12L1213.43 606.762L1238.16 587.271L1246.23 580.904L1252.97 575.595C1254.51 574.747 1255.98 573.771 1257.36 572.679C1259.67 570.853 1261.79 568.696 1263.71 566.304C1266.14 563.266 1268.22 559.839 1269.94 556.228C1272.13 551.65 1273.73 546.813 1274.71 541.833C1275.72 536.593 1275.95 531.457 1275.31 526.934L1211 524.772V524.772Z" fill="#E0E2E5"/>
<path d="M1740.38 146.517C1740.39 141.165 1739.95 135.822 1739.09 130.54C1738.14 124.631 1736.64 118.822 1734.62 113.188C1733.73 110.707 1732.73 108.263 1731.64 105.863C1717.92 75.658 1689.32 53.509 1654.91 49.063C1653.34 49.59 1582.66 73.357 1567.47 105.863C1567.37 106.068 1567.27 106.272 1567.18 106.478C1564.24 113.101 1562.04 120.032 1560.64 127.141C1564.08 127.238 1567.58 127.334 1571.15 127.431C1591.19 127.975 1613.39 128.538 1638.28 129.305C1643.89 129.478 1648.84 129.907 1653.26 130.54C1674.23 133.543 1683.05 141.235 1690.86 149.048C1699.35 157.53 1706.68 166.145 1727.17 169.045L1727.75 169.124C1731.09 169.573 1734.75 169.878 1738.83 170.004H1738.84C1739.12 170.013 1739.4 170.069 1739.68 170.102L1739.68 170.341C1738.91 170.413 1738.14 170.482 1737.37 170.552C1734.44 170.818 1731.44 171.062 1728.4 171.293L1727.17 171.388C1718.8 172.003 1710.43 172.475 1702.05 172.804C1695.61 173.06 1688.99 173.243 1682.23 173.354C1675 173.473 1667.6 173.505 1660.06 173.449C1658.54 173.438 1657.02 173.418 1655.49 173.4L1655.49 173.405L1654.58 173.39C1652.07 173.358 1649.55 173.316 1647.04 173.265L1645.72 173.238C1643.86 173.197 1642 173.15 1640.14 173.098C1639.07 173.069 1638.01 173.043 1636.94 173.01C1633.67 172.908 1630.4 172.79 1627.13 172.655L1626.29 172.621C1622.98 172.484 1619.7 172.331 1616.44 172.163H1616.43L1615.09 172.093C1590.63 170.798 1567.69 168.655 1547.23 165.872C1546.81 165.815 1546.38 165.759 1545.96 165.701C1544.84 165.547 1543.74 165.388 1542.64 165.229C1540.67 164.948 1538.71 164.657 1536.75 164.358V164.359C1536.75 164.359 1533.21 166.551 1528.72 169.397C1522.66 173.244 1514.86 178.29 1511.71 180.758C1511.55 180.883 1511.39 181.015 1511.24 181.153C1509.19 183.048 1509.08 185.45 1511.24 187.894C1513.77 190.744 1519.41 193.649 1528.72 195.876C1529.7 196.109 1530.7 196.336 1531.75 196.553C1532.75 196.759 1533.83 196.971 1534.96 197.188C1541.26 198.39 1549.55 199.726 1559 200.85L1559.25 200.879L1559.65 200.926L1560.68 201.047C1564.38 201.47 1568.26 201.853 1572.24 202.186L1572.8 202.233L1572.84 202.237C1574.04 202.335 1575.24 202.427 1576.46 202.515C1590.43 203.523 1605.59 203.796 1620.03 202.515C1626.4 201.949 1632.64 201.087 1638.56 199.844C1675.63 192.058 1673.48 193.099 1697.91 187.941C1707.74 185.866 1718.65 184.667 1727.17 183.942C1728.62 183.819 1730.08 183.703 1731.54 183.594C1734.76 183.352 1737.44 183.183 1739.3 183.058L1739.71 169.927L1739.69 169.928L1740.22 152.053C1740.27 151.176 1740.31 150.296 1740.34 149.412C1740.37 148.471 1740.38 147.534 1740.38 146.599L1740.38 146.517H1740.38V146.517Z" fill="white"/>
<path d="M1644.78 47.7059C1603.75 46.4419 1567.83 70.5539 1552.08 105.863C1552.06 105.913 1552.04 105.961 1552.01 106.01C1548.54 113.834 1546.11 122.082 1544.79 130.54C1544.15 134.598 1543.77 138.692 1543.64 142.798C1543.63 143.134 1543.63 143.469 1543.63 143.804C1543.92 143.534 1544.1 143.365 1544.1 143.365C1544.14 142.062 1544.22 140.769 1544.31 139.48C1544.32 139.293 1544.33 139.105 1544.34 138.917C1544.44 137.682 1544.56 136.455 1544.69 135.235L1544.77 134.608C1544.92 133.375 1545.08 132.148 1545.28 130.931L1545.34 130.54L1545.34 130.518C1545.55 129.246 1545.78 127.981 1546.03 126.726L1546.04 126.713C1550.77 126.859 1555.64 127 1560.64 127.141C1562.04 120.032 1564.23 113.102 1567.17 106.478C1567.26 106.272 1567.37 106.068 1567.46 105.863C1582.65 73.3569 1653.33 49.5899 1654.91 49.0629L1654.95 49.0499C1654.95 49.0499 1647.33 47.7849 1644.78 47.7059V47.7059Z" fill="#E0E2E5"/>
<path d="M1500.3 730.063C1498.17 720.207 1496.01 710.272 1493.91 700.706C1492.87 695.987 1491.83 691.27 1490.79 686.553L1486.56 667.921L1485.1 661.457C1468.99 654.474 1452.88 647.502 1436.77 640.54H1299.51C1316.29 653.03 1333.11 665.529 1349.81 677.556L1351.95 679.095C1357.97 683.422 1364.01 687.708 1370.09 691.951C1383.35 701.205 1396.5 710.028 1409.45 718.177C1415.22 721.815 1421.04 725.363 1426.93 728.82C1427.64 729.237 1428.35 729.65 1429.06 730.063C1436.66 734.483 1444.18 738.616 1451.6 742.41C1463.54 748.515 1475.22 753.743 1486.56 757.869C1488.04 758.405 1489.51 758.921 1490.97 759.42C1496.63 761.349 1502.2 762.998 1507.67 764.329L1506.62 759.42C1504.61 750.029 1502.47 740.088 1500.3 730.063V730.063ZM1640.14 173.093C1639.07 173.064 1638.01 173.043 1636.94 173.01C1638.01 173.043 1639.07 173.068 1640.13 173.098C1642 173.15 1643.87 173.197 1645.72 173.238C1645.21 173.227 1644.68 173.21 1644.17 173.198C1642.83 173.167 1641.48 173.13 1640.14 173.093ZM1738.84 170.003H1738.83C1734.75 169.877 1731.09 169.572 1727.75 169.123C1727.56 169.097 1727.36 169.072 1727.17 169.044C1706.68 166.145 1699.35 157.529 1690.86 149.047C1683.05 141.234 1674.23 133.542 1653.26 130.539C1648.84 129.906 1643.89 129.476 1638.28 129.304C1613.39 128.537 1591.19 127.974 1571.15 127.43C1567.58 127.333 1564.08 127.237 1560.64 127.14C1555.64 126.999 1550.77 126.858 1546.04 126.712C1545.78 127.976 1545.55 129.244 1545.35 130.517L1545.34 130.539L1545.28 130.93C1545.09 132.152 1544.92 133.378 1544.77 134.607C1544.75 134.816 1544.72 135.025 1544.7 135.234C1544.56 136.459 1544.44 137.687 1544.35 138.916C1544.33 139.103 1544.32 139.291 1544.31 139.479C1544.22 140.772 1544.15 142.068 1544.11 143.364C1543.92 149.383 1544.29 155.408 1545.2 161.36C1545.39 162.625 1545.61 163.886 1545.85 165.142C1545.89 165.327 1545.92 165.514 1545.96 165.699C1546.38 165.757 1546.81 165.812 1547.23 165.87C1567.69 168.653 1590.63 170.797 1615.09 172.091L1616.43 172.161L1618.67 157.268L1621.51 151.999L1650.95 152.906L1653.46 158.34L1654.57 166.554L1655.49 173.352L1655.5 173.397C1657.02 173.415 1658.55 173.435 1660.06 173.446C1667.6 173.502 1675 173.469 1682.23 173.351C1688.99 173.24 1695.61 173.057 1702.05 172.801C1710.43 172.472 1718.8 172 1727.17 171.385L1728.4 171.29C1731.44 171.059 1734.45 170.814 1737.38 170.549C1738.15 170.479 1738.92 170.41 1739.68 170.338L1739.68 170.099C1739.4 170.068 1739.12 170.012 1738.84 170.003V170.003Z" fill="#D0D4D8"/>
<path d="M1650.95 152.908L1621.51 152.001L1618.67 157.27L1653.46 158.342L1650.95 152.908Z" fill="#EFF1F2"/>
<path d="M1655.49 173.4L1655.49 173.355L1654.57 166.557L1653.46 158.343L1618.67 157.271L1616.43 172.164H1616.44C1619.7 172.332 1622.98 172.485 1626.29 172.622L1627.13 172.656C1630.38 172.788 1633.64 172.909 1636.94 173.011C1638.01 173.044 1639.07 173.065 1640.14 173.094C1641.48 173.131 1642.83 173.167 1644.17 173.198C1644.69 173.21 1645.21 173.227 1645.72 173.238L1647.04 173.265C1649.57 173.317 1652.08 173.357 1654.58 173.39L1655.49 173.405V173.4V173.4ZM1545.2 161.362C1544.28 155.41 1543.92 149.386 1544.1 143.366C1544.1 143.366 1543.93 143.534 1543.63 143.805C1542.55 144.786 1539.84 147.192 1537.7 148.526C1537.49 148.662 1537.32 148.84 1537.2 149.049C1535.21 152.105 1536.74 164.343 1536.75 164.359C1538.68 164.656 1540.65 164.945 1542.63 165.23C1543.74 165.389 1544.84 165.547 1545.96 165.702C1545.92 165.517 1545.89 165.33 1545.85 165.145C1545.61 163.888 1545.39 162.627 1545.2 161.362V161.362Z" fill="#C1C7CC"/>
<path d="M1836.43 379.996C1835.68 365.416 1833.21 350.647 1827.72 337.392C1815.98 309.747 1796.86 286.079 1774.14 271.309C1772.49 270.203 1770.89 269.039 1769.33 267.821C1758.84 259.718 1750.39 249.278 1744.65 237.333C1741.34 230.438 1738.93 223.089 1737.59 215.451C1735.58 204.099 1733.39 192.401 1731.53 183.594C1730.08 183.703 1728.62 183.819 1727.17 183.942C1718.64 184.667 1707.74 185.867 1697.91 187.941C1673.48 193.098 1675.63 192.058 1638.56 199.844C1632.64 201.088 1626.4 201.949 1620.02 202.515C1605.59 203.796 1590.43 203.523 1576.46 202.515C1575.25 202.428 1574.05 202.335 1572.84 202.237C1572.93 202.329 1573.01 202.423 1573.09 202.515C1578.39 208.238 1584.93 212.979 1592.21 216.91C1609.52 226.267 1630.99 231.016 1649.77 233.376C1654.83 234.009 1659.92 234.506 1665.01 234.865C1669.61 235.163 1674.22 235.376 1678.82 235.504C1679.91 233.338 1684.32 224.233 1690.28 216.91C1697.01 208.644 1705.72 202.649 1713.84 211.474C1715.31 213.086 1716.32 214.922 1716.98 216.91C1722.29 232.899 1703.73 259.394 1695.48 270.173L1695.51 270.378L1698.12 284.773L1707.8 338.241L1710.41 352.636L1713.61 370.338H1715.74L1726.34 396.468L1727.17 396.742C1741.22 401.409 1755.27 406.071 1769.32 410.727C1774.05 412.297 1778.78 413.857 1783.52 415.409L1783.52 415.402H1783.52H1783.52C1817.8 420.893 1841.46 434.337 1851.88 475.994L1852.42 477.587L1852.67 478.331L1853.58 479.116C1853.87 478.624 1854.16 478.111 1854.45 477.588C1857.86 471.501 1861.47 463.317 1864.26 452.705C1869.95 430.553 1867.86 408.588 1836.43 379.996V379.996ZM1600.05 396.47L1607.12 377.315L1609.7 370.34H1614.08L1614.23 369.089C1615.06 362.103 1615.87 355.114 1616.67 348.124C1616.6 348.15 1616.54 348.173 1616.52 348.185C1616.84 344.969 1617.2 341.603 1617.56 338.241C1618.02 334.058 1618.48 329.896 1618.89 326.036L1618.93 325.648C1608.34 325.077 1598.13 323.185 1588.12 320.16C1588.12 320.16 1586.49 316.62 1583.79 309.45C1582.76 306.72 1581.77 303.978 1580.81 301.224C1578.91 295.772 1577.1 290.287 1575.39 284.772C1573.91 279.991 1572.48 275.193 1571.12 270.377C1570.36 267.7 1569.59 264.927 1568.8 262.03C1567.05 255.27 1565.53 248.452 1564.24 241.587C1562.72 233.41 1561.5 225.178 1560.6 216.909C1560.02 211.576 1559.57 206.231 1559.25 200.877L1559 200.848C1549.55 199.724 1541.26 198.388 1534.96 197.186C1535.15 198.944 1535.43 200.72 1535.82 202.514C1536.85 207.221 1538.62 212.038 1541.27 216.909C1544.24 222.354 1548.31 227.864 1553.68 233.361C1553.89 233.576 1554.09 233.791 1554.3 234.006V287.591C1554.11 288.159 1553.92 288.727 1553.55 289.295C1551.85 293.261 1550.18 297.237 1548.53 301.223C1548.09 302.283 1547.66 303.345 1547.23 304.407C1542.89 315.128 1538.4 327.266 1535.73 338.239C1534.47 343.385 1533.62 348.27 1533.37 352.634C1533.32 353.505 1533.29 354.362 1533.29 355.188C1533.29 375.687 1537.41 392.787 1542.49 406.102C1543.91 409.808 1545.48 413.45 1547.22 417.015C1550.25 415.898 1553.35 414.98 1556.5 414.266L1563.5 411.426L1576.51 406.102L1600.05 396.47V396.47ZM1744.65 819.756C1743.71 818.499 1742.78 817.248 1741.83 816.001L1741.83 816H1572.43C1572.43 816 1572.43 816.422 1572.44 817.202C1572.46 818.956 1572.52 822.579 1572.7 827.677C1572.86 832.132 1573.12 837.711 1573.53 844.129C1573.7 846.74 1573.89 849.484 1574.12 852.355C1574.86 861.974 1575.84 871.574 1577.06 881.145C1577.66 885.839 1578.34 890.651 1579.1 895.54C1579.96 901.041 1580.92 906.526 1581.99 911.992C1582.52 914.74 1583.08 917.482 1583.68 920.218C1585.78 929.95 1588.29 939.662 1591.27 949.008C1593.06 954.651 1595.03 960.162 1597.18 965.46C1597.22 965.546 1597.25 965.633 1597.29 965.719C1600.22 972.934 1603.27 981.128 1606.41 990.137C1617.99 1023.35 1630.8 1067.75 1643.57 1116H1801.62C1809.49 1003.31 1814.94 935.882 1769.33 856.962C1762.35 844.897 1754.18 832.562 1744.65 819.756V819.756Z" fill="#004975"/>
<path d="M1606.41 990.137C1603.27 981.127 1600.22 972.934 1597.29 965.719L1597.18 965.46C1595.03 960.162 1593.06 954.651 1591.27 949.008C1588.29 939.661 1585.78 929.95 1583.67 920.218C1583.08 917.482 1582.52 914.74 1581.99 911.992C1580.92 906.526 1579.96 901.041 1579.1 895.54C1578.36 890.751 1577.67 885.953 1577.06 881.145C1575.84 871.574 1574.86 861.974 1574.12 852.355C1573.9 849.614 1573.71 846.872 1573.53 844.129C1573.18 838.649 1572.9 833.165 1572.7 827.677C1572.52 822.579 1572.46 818.956 1572.44 817.202C1572.43 816.422 1572.43 816 1572.43 816H1517.84L1511.24 830.618L1508.41 836.9L1507.1 839.79L1498.85 858.071C1498.47 860.657 1497.06 869.408 1495.22 880.885L1495.21 880.951C1492.6 897.264 1489.13 919.061 1486.56 936.522C1484.45 950.879 1482.94 962.303 1483 965.323L1488.17 1116H1643.57C1630.8 1067.75 1617.99 1023.35 1606.41 990.137Z" fill="#003253"/>
</svg>
